/* XPM */
static char *_643a12fe3ea4425e80091ea9bffb513QfB3stxcWRe90U52[] = {
/* columns rows colors chars-per-pixel */
"60 60 252 2 ",
"   c None",
".  c #050505",
"X  c #0B0A0A",
"o  c #0A0706",
"O  c #130E0B",
"+  c #140D07",
"@  c #16110C",
"#  c #1C140C",
"$  c #1E180C",
"%  c #151313",
"&  c #1B1A17",
"*  c #0A180C",
"=  c #24190B",
"-  c #2A1C0D",
";  c #22150C",
":  c #261C15",
">  c #2E130C",
",  c #163517",
"<  c #33230E",
"1  c #3C280D",
"2  c #2B2418",
"3  c #392917",
"4  c #3C3817",
"5  c #302F0C",
"6  c #113E23",
"7  c #292928",
"8  c #382C23",
"9  c #393329",
"0  c #383737",
"q  c #2E362F",
"w  c #1B1C20",
"e  c #46170A",
"r  c #581B0A",
"t  c #4D190E",
"y  c #671C0E",
"u  c #452B14",
"i  c #572917",
"p  c #493515",
"a  c #5A3C15",
"s  c #553917",
"d  c #4D340D",
"f  c #68260E",
"g  c #73240F",
"h  c #6A2813",
"j  c #782714",
"k  c #663817",
"l  c #793516",
"z  c #66360F",
"x  c #463626",
"c  c #583828",
"v  c #463C36",
"b  c #522C23",
"n  c #653824",
"m  c #713929",
"M  c #195A15",
"N  c #1B4B13",
"B  c #295519",
"V  c #304F10",
"C  c #167017",
"Z  c #286C15",
"A  c #124F27",
"S  c #2D4F29",
"D  c #167629",
"F  c #196931",
"G  c #0C7B37",
"H  c #167635",
"J  c #106E2C",
"K  c #30722F",
"L  c #5A4319",
"P  c #47450C",
"I  c #6B4B1B",
"U  c #664518",
"Y  c #744D1A",
"T  c #704917",
"R  c #7C531B",
"E  c #78551B",
"W  c #69501A",
"Q  c #5A432A",
"!  c #4B4436",
"~  c #574534",
"^  c #4D5234",
"/  c #674628",
"(  c #795422",
")  c #674A35",
"_  c #695135",
"`  c #79593A",
"'  c #744C2C",
"]  c #597237",
"[  c #3E3F42",
"{  c #357A44",
"}  c #474747",
"|  c #5C5549",
" . c #595959",
".. c #4F4C4D",
"X. c #7B5746",
"o. c #6A584E",
"O. c #4C774D",
"+. c #6A6548",
"@. c #786B51",
"#. c #585C65",
"$. c #636364",
"%. c #6C6C6B",
"&. c #65676C",
"*. c #777778",
"=. c #6E6E72",
"-. c #5B606A",
";. c #882914",
":. c #952C17",
">. c #853518",
",. c #96351B",
"<. c #A63A1B",
"1. c #B73A1D",
"2. c #8C3C23",
"3. c #B53A23",
"4. c #8B5C1D",
"5. c #83571C",
"6. c #915E1E",
"7. c #924418",
"8. c #B6431D",
"9. c #A7421B",
"0. c #89621D",
"q. c #94621E",
"w. c #99691E",
"e. c #9B721E",
"r. c #A26A1F",
"t. c #AA781F",
"y. c #B4741F",
"u. c #835A24",
"i. c #875C3A",
"p. c #935530",
"a. c #AB5127",
"s. c #976721",
"d. c #906830",
"f. c #A66A22",
"g. c #AD7321",
"h. c #A77A23",
"j. c #B27420",
"k. c #B47B21",
"l. c #B97B21",
"z. c #B26935",
"x. c #B16D3A",
"c. c #CB441F",
"v. c #D54522",
"b. c #C84724",
"n. c #EA5028",
"m. c #D06239",
"M. c #815C51",
"N. c #876746",
"B. c #976946",
"V. c #947550",
"C. c #A6794E",
"Z. c #B97A47",
"A. c #A57C53",
"S. c #AE7149",
"D. c #8D776D",
"F. c #CF7B49",
"G. c #E77E4B",
"H. c #C43D20",
"J. c #079608",
"K. c #108C10",
"L. c #07A70A",
"P. c #01B307",
"I. c #02B20A",
"U. c #04A815",
"Y. c #11B317",
"T. c #089629",
"R. c #0C833D",
"E. c #0B8837",
"W. c #0C8B28",
"Q. c #2B9027",
"!. c #20800C",
"~. c #488443",
"^. c #5A8A54",
"/. c #68915A",
"(. c #588864",
"). c #66906F",
"_. c #74A96E",
"`. c #48B849",
"'. c #5CCA5E",
"]. c #2D993D",
"[. c #BC8322",
"{. c #B88724",
"}. c #AE8422",
"|. c #C58A23",
" X c #CD9324",
".X c #CA9624",
"XX c #D19523",
"oX c #D79D26",
"OX c #DDA325",
"+X c #DFA729",
"@X c #E5AA25",
"#X c #EAAF25",
"$X c #E3A826",
"%X c #EBB026",
"&X c #978957",
"*X c #B68759",
"=X c #B18452",
"-X c #968B6D",
";X c #AE966C",
":X c #B8A779",
">X c #88A569",
",X c #C88B55",
"<X c #CB8F57",
"1X c #CA9763",
"2X c #D79D64",
"3X c #D9A46B",
"4X c #D9AC73",
"5X c #DCB67C",
"6X c #C9A975",
"7X c #E0B67C",
"8X c #E3A971",
"9X c #E88759",
"0X c #787D86",
"qX c #788C88",
"wX c #89898C",
"eX c #868A95",
"rX c #969696",
"tX c #8E9297",
"yX c #8DAB89",
"uX c #B8A88D",
"iX c #929BAB",
"pX c #A8A8A9",
"aX c #B7B8B8",
"sX c #ACB1B3",
"dX c #9CA5A3",
"fX c #D4BC85",
"gX c #CFB588",
"hX c #E4BD89",
"jX c #CCB9A7",
"kX c #B7CABA",
"lX c #9ED49C",
"zX c #DBC58A",
"xX c #E2C78B",
"cX c #E4C896",
"vX c #E6D298",
"bX c #D9D1B1",
"nX c #E7D5AF",
"mX c #AAB9CA",
"MX c #B4B9C7",
"NX c #B6C6D9",
"BX c #AAC1C5",
"VX c #BECCE3",
"CX c #CAD9C8",
"ZX c #D7DCDA",
"AX c #C9CFD1",
"SX c #E5D6C4",
"DX c #C4D3EA",
"FX c #D6DEEA",
"GX c #C0CEE7",
"HX c #F9FAF9",
"JX c #E9ECEC",
"KX c #EAE7DA",
/* pixels */
"                                                      X                       e e                                       ",
"                                       . .          9 | !                   @.D.V./                                     ",
"                                    } -XD.b t     e 9 D.@.8               b D.jXuX'                                     ",
"                                  9 D.:XV.n ;.;.;.j v rX:X_ ; >           b D.SXgX'                                     ",
"                                  9 ;X*Xp.,.<.:.<.,.v pXcXX.> g g         N.:XnXfXB.n                                   ",
"                                  3 B.p.:.<.:.<.8.k | aXcX` t 3.:.y y   m *XxXxXxX3Xp.i   n n m n                       ",
"                                  t l ,.,.:.<.<.l ~ uXbXcXX.r H.c.1.:.j 9.,X8X4X4X2Xz.k / V.uXjX-Xo.                    ",
"                                g ;.:.<.<.,.<.>./ -XnXnXhXX.r c.v.c.:.g ,.m.G.F.F.Z.p.a ^ /.bXSX;X)                     ",
"                                ;.c.c.9.7.7.l c @.nXKXnX6X` h 8.8.7.h e i <.v.b.9.7.z V D K >X6XC.n                     ",
"                        t e r ;.1.<.;.g l l c N.6XvXvX6XN.m <.9.l f u V S s g f f i V K.T.W.K &XB.k                     ",
"                      g :.f r ;.<.>.:.:.j h 2.Z.8XhX6XV.n >.9.2.X.%.| M J Z V V V @.>X`.Y.U.D ] _ i                     ",
"                      ;.c.>.r f j g 1.v.<.j ,.b.F.1XA.Q i >.2.M.rXMXyXO.D C K.K.Q._.lX'.Y.L.D B 4 e                     ",
"                    r ;.v.g t t r g v.n.c.,.l ,.a.z.u.3 1 i ) wXMXFXAXyX~.C !.!.Q.`.'.`.Y.L.Z 4 u u i i                 ",
"                    r ;.v.r 1 1 r :.v.n.b.>.4 p k z s 5 , < v eXmXFXJXCXyX^.^.^.^.Q.L.P.L.!.U m X.M.M.X.'               ",
"                      ;.H.f Z V >.v.v.8.l 4 A 6 * * , K.T.A * 7 0XmXAXZXZXZXJXHXZX/.K.L.K.P 1.9XcXKXKXnXA.i             ",
"                        j 1.l >.8.<.g r 4 F E.W.J.J.J.L.T.G A * w 7 7 q q 0 0XDXJXCX/.K.K.d 1.n.9XhXhX4XB.i             ",
"                        y <.j ;.<.2.M.D. .F W.U.I.I.L.U.E.R.J 6 * & 7 7 7 q ..tXZXJX_.K.J.Z l 8.F.3X3XZ.' 4             ",
"                      > > z d z h b *.pXqXS C K.K.J.U.T.E.R.G A , }  .....$. .-.iXAXyXQ.K.K.P >.z.F.Z.` V N             ",
"                  2 2 : - 4 V V 1 : ..eX0Xq N N N M G G G G F 6 q 0XtX&.&.tXwX..-.pXkX_.!.J.V z 7.p.' ^ M N p c c c     ",
"                  | +.+.+.+.K B , ; b o.%.+.+.+.+.^ A A J J A q } tXrX*.*.rXtX..[ &.aXyXZ J.C P z z V D J B X.D.D.D.    ",
"                ~ &X:XgX:X:X+.S 6 - >.' @.6XfXfXfX-X9 q A A 7  .$.%.=.%.%.=.%.&. .0 tXyXZ J.L.Z 5 V !.W.J K >XbXSXuXc e ",
"              ! V.@.-X;X+.gX:X+., $ i N.:XfX4X4XfXfX;X-X^ * [ rXtX..9 9 9 9 ..wXtX} wXyXK J.P.J.K.J.L.T.E.H ] uXhX;Xi e ",
"              ! ;XV.&X;X' fXzX;X@.+.@.;X5X1XV.N.*XxXvXzX&X8 } rX*.~ L I I L ~ =.wX} tXkX_.Q.L.P.P.P.I.T.R.G M &X*XB.i   ",
"              ! ;X1X1X6X=XzXcXzXfXfXfX6X1XV.v 2 _ 6XcXxX4X` 7  .v I [.oXoXk.Y !  .0 tXJXkX~.J.P.P.P.U.T.R.G M N.B.n     ",
"              x ;X5XxXxXzXvXvXhX4X4X1XX.3 | D.} # +.zXxX5X` O 2 I k.OX#X#XOX{.( 2 & tXJXCX~.J.P.P.U.T.E.R.G M p i       ",
"              8 N.;X5X7X7X7X7X4X*X` ~ 8 0 rXaX .. ! fXfX4X` o $ Y  X#X#X#X$X X5.8 %.AXHXCX~.J.P.P.U.T.R.R.G M 5         ",
"                3 ` C.A.A.A.A.C.N.2 % % ..rXrX} $ X.5X3X*X_ % # a k.OX#X#X$X X5.! sXHXHXCX~.J.P.I.U.E.R.H F M           ",
"            $ # : 3 x x x x x x 9     % 7 } } 9 Q *X3X1X` x 7 @ < 4..X$X#X$X X5.~ aXHXHXCX~.J.I.U.T.E.G F V N           ",
"          s L L L p - . . . . . .     & & : x ~ B.3X1XB.8 & 7 % 1 0.XX$X#X$X X5.~ aXHXHXCX~.J.U.T.E.G F Q h 5           ",
"      + < h.$X+X@X.XE #   .   X . . . 7 v ~ *X3X2X1XA.x O X % < e.$X#X#X#X$X X4.~ aXHXHXCX~.J.T.E.R.H S ,.8.j           ",
"  $ W {..Xk.T s t.XX[.Y X   %     .   : ) *X2X1Xi.# 7 $.*.pXsX .3 0.$X#X#X$XXX4.! iXJXHXCX~.J E.R.F 4 ,.G.hXSX@.        ",
"  # W |.[.R I s..XoX|.Y . X X X o . & ) C.1X<XN.3 . % q 0 *.rX .0 Q h.OX$XoX[.R v iXFXFXkXO.J R.R.F p <.9XcXnXuXM.      ",
"  p 0.{.w.I s..X.X{.h.Y X 8 9 x x 8 c N.*XA.V.' p 1 1 3 : 0 %.&.%.! E .XoX|.j.R v iXDXDXBX(.H G R.F p ,.F.hXcXjXD.b     ",
"@ ( h.r.U 0..XoXh.R R T : N.&X;X&XC.C.*XV.Q Q u.h.t.e.R < % } *.sX&.L h.[.k.g.R v iXDXDXNXdX{ H R.F 4 >.F.3X7XgXB.i     ",
"X L s.4.1 I }.k.Y U R 4.s N.6X5X7X3X2XA.` L L 5.{.%X$X|.R - 7 *.pX%.x E f.g.q.s 7 &.mXGXDXNXO.J G H S s u.d.B.B.'       ",
". @ p U = @ a T a 5.q.4.Y 3 N.=X=X*XC.` ( h.0.U w.%X%X$X XE x $.$.&.} 3 T 5.s ; ; 2 =.mXVXNX).H G R.H S 1 e e e         ",
". X : = @ @ 3 p R 4.U < <   8 8 3 3 p u.}.q.I q..X$X$X$X$X[.I 9 } tX=.7 - < ; < T 5.) 0XmXVXmX(.H G R.H M N             ",
"    o @ u 3 u a a a u o         . . = 0.h.E 0.{.OX{.e..X@XXXR 2 0 *.$.8 x 2 - U r.g.R | qXmXDX).F G R.G C               ",
"  . . = a 3 p U - @                 = I E U {.oX[.R I {.OX XR : 7 } v c ` Q U r.k.j.f.( | tXNXqX{ H G C M               ",
"  . X # = + @ -                     o = = p h.[.R L {.oX|.j.Y # % : ~ ` / ( k.oXoX|.j.s.( ..iXmXqXK M M M               ",
"      X . X . .                     . . o - I 0.k s oX|.0.a u : x _ _ _ Y f.oX@X$XXXl.g.4.x eXVXmXqX).K M               ",
"      . .   . .                     . X X X 1 U p 1 h.g.a < u x i.Z.' s 0..X$X#X#X$X Xl.q.c *.mXNXNXBX(.N               ",
"            . .                         . . # < = $ I 5.d p i.i.x.x./ s t.$X%X#X#X#XOX|.f.( | eXmXNXmX).S *             ",
"            .                           o X O X . o 2 s d ' F.F.x.z./ s }.#X#X#X#X#X#XXXk.r.1 } 0XqXqX=.S *             ",
"                                          = @ + O :   ; k a.a.z.,X3XN.L }.#X#X#X#X#X$X Xj.u.< + @ @ % #.-.& w 7 7       ",
"                                        U h.5.p Q N.@ # ` <X<X2X2X3XN.L }.#X#X#X#X#XXXk.q.u o p 4.Y < % % 7 iXMX*.7     ",
"                                      # W |.[.u./ _ ` i.*X2X3X3X3X,X/ p e.OX#X#X$XXX[.j.s.I = a w.f.0.E p : #.sX*.7     ",
"                                      # U .XoXh.U x S.S.Z.,X,X,X,XZ.i./ u.[.oXoXXX|.j.j.g.w.a a 4.g.[.|.e.L _ *...%     ",
"                                      $ W .XOX[.U u p.z.z.z.z.z.z.Z.=XN./ 4.|.|.l.j.j.j.j.t.q.a U w.l.XX.X{.h.) 7 @ o . ",
"                                        s e..X Xq.s k p.x.x.x.x.x.,X2XC.c T j.j.j.j.j.j.j.j.j.a p 6.j.|.XXXX|.R p 1 + . ",
"                                          L {.oX[.5.s i.C.Z.<X2X2X2X3X=X) I 4.4.q.f.j.j.j.g.s.u p 6.j.j.k.k.j.f.4.U $ . ",
"                                          1 q.k.l.f.( s u n x.,X1X1X1X,XV.Q - - p q.j.j.j.g.U - d 4.g.j.j.g.r.w.T 3     ",
"                                        . $ s 6.j.j.f.Y k s s ) _ _ _ _ ) s > = U h. X X X Xe.I k I q.j.j.f.U s u       ",
"                                      X @ < s 0.k.j.g.f.f.T - @ @ @ @ @ - i u u 4.}.{..XOX.X}.h.R a Y 4.6.( < +         ",
"                                  . . X s h.|..X|.j.j.j.j.r.U ;           ; @ 1 Y s 1 0.}.U < Y s.R d - = -             ",
"                                } &.q ..@.d..X@XOX|.y.j.j.j.w.I 3         =.wX%.| D.eX@.+.-XeX| ( 4.Y < o               ",
"                              } %.tX=.pXpX@.h..XoX Xy.j.j.j.j.s.u       $.pXAXeX*.AXFX0X..aXJXeX| u.s.p @               ",
"                              $.*.%.rXAXMX*._ 0.k.g.r.r.r.r.r.4.1     } wXsXtX=.rXAXAX=.} sXFXsX%.Q Y p +               ",
"                            & .. .0 *.rXtX-.8 u T U U U I T U a -     q =.qX..0 *.rXeX..q *.rXeX .8 u < +               ",
"                            X . . . . . . . . . . . . . . . . . .     . . . . . . . . . . . . . . . . . o               "
};
