/* XPM */
static char *_308f55ff0ae4bcac21b19e0bbb0a4b82wSPX7fyCbq9Qpb9[] = {
/* columns rows colors chars-per-pixel */
"60 60 249 2 ",
"   c None",
".  c #030302",
"X  c #0B0202",
"o  c #04040A",
"O  c #0A0B0B",
"+  c #0B0706",
"@  c #130204",
"#  c #170805",
"$  c #181508",
"%  c #070815",
"&  c #1A0815",
"*  c #191815",
"=  c #0F180E",
"-  c #270509",
";  c #261802",
":  c #250518",
">  c #3A0315",
",  c #301311",
"<  c #1A221B",
"1  c #352604",
"2  c #2D2A14",
"3  c #041926",
"4  c #171623",
"5  c #2F1527",
"6  c #132B37",
"7  c #272625",
"8  c #363636",
"9  c #2E2B34",
"0  c #440114",
"q  c #56071C",
"w  c #4A3307",
"e  c #50360D",
"r  c #5D0823",
"t  c #4B1730",
"y  c #680626",
"u  c #780A2D",
"i  c #533432",
"p  c #642422",
"a  c #5C4A11",
"s  c #654908",
"d  c #76570B",
"f  c #644814",
"g  c #6D5511",
"h  c #7A630E",
"j  c #46472D",
"k  c #68572B",
"l  c #756538",
"z  c #162B48",
"x  c #4E1B43",
"c  c #6C2F56",
"v  c #7F1E40",
"b  c #0C437B",
"n  c #305F7B",
"m  c #50504E",
"M  c #7A784C",
"N  c #495168",
"B  c #6C4463",
"V  c #6B6C66",
"C  c #850B34",
"Z  c #8B670C",
"A  c #896B17",
"S  c #917215",
"D  c #A57916",
"F  c #83572F",
"G  c #8D732B",
"H  c #AE7D23",
"J  c #845D14",
"K  c #CD7D31",
"L  c #B90947",
"P  c #B11248",
"I  c #97294C",
"U  c #89326A",
"Y  c #AC2359",
"T  c #D20A50",
"R  c #EE055A",
"E  c #E80856",
"W  c #F3055A",
"Q  c #FB015A",
"!  c #F30A5B",
"~  c #F50657",
"^  c #F5165C",
"/  c #EA0E54",
"(  c #F60C61",
")  c #FA1B62",
"_  c #F81863",
"`  c #EE1A6B",
"'  c #D63E66",
"]  c #FD2C6C",
"[  c #F92364",
"{  c #FC3C6D",
"}  c #F7376B",
"|  c #FE3D71",
" . c #F93771",
".. c #ED2E6D",
"X. c #E02362",
"o. c #847A45",
"O. c #954878",
"+. c #887B65",
"@. c #BA4A6D",
"#. c #D67C55",
"$. c #D7426A",
"%. c #F6416E",
"&. c #F54373",
"*. c #FC4272",
"=. c #FA4878",
"-. c #F04E78",
";. c #DA7869",
":. c #7F8364",
">. c #BA8B08",
",. c #A88716",
"<. c #B88A16",
"1. c #BA9619",
"2. c #B5890B",
"3. c #B18C29",
"4. c #9F821E",
"5. c #C48C03",
"6. c #C38D0B",
"7. c #C88C05",
"8. c #C89505",
"9. c #C38B11",
"0. c #C59513",
"q. c #D19412",
"w. c #DAA709",
"e. c #CEA71B",
"r. c #E9B509",
"t. c #F2BE0E",
"y. c #E8B40F",
"u. c #C79024",
"i. c #CEA727",
"p. c #FCBE35",
"a. c #F6C602",
"s. c #FBC705",
"d. c #FDCA05",
"f. c #F9C60C",
"g. c #FCCA0A",
"h. c #F5C609",
"j. c #FCCC13",
"k. c #F8C718",
"l. c #F3CA11",
"z. c #F4C726",
"x. c #96955A",
"c. c #93916E",
"v. c #B1AA6B",
"b. c #B9977A",
"n. c #F7AB59",
"m. c #FBA76D",
"M. c #E29069",
"N. c #CCCC72",
"B. c #31638F",
"V. c #1C689E",
"C. c #706E8B",
"Z. c #097ACE",
"A. c #E83085",
"S. c #B45091",
"D. c #906D94",
"F. c #B17190",
"G. c #855282",
"H. c #C4549B",
"J. c #F25585",
"K. c #C7779E",
"L. c #C26B9A",
"P. c #D65DA9",
"I. c #F559B8",
"U. c #F152AD",
"Y. c #CF68A8",
"T. c #FC74A9",
"R. c #EC63B8",
"E. c #F766BA",
"W. c #F275BB",
"Q. c #F56292",
"!. c #F95BC3",
"~. c #E85EC2",
"^. c #F965C4",
"/. c #FA78C5",
"(. c #EB76C4",
"). c #CE71CB",
"_. c #3D84AC",
"`. c #7E8596",
"'. c #5893A8",
"]. c #6095A1",
"[. c #178CDD",
"{. c #2788D5",
"}. c #0D91EF",
"|. c #54BEF6",
" X c #6ABCE4",
".X c #70B8D6",
"XX c #76C5D7",
"oX c #5CC4F6",
"OX c #77CAE8",
"+X c #6ACEF3",
"@X c #77CEF5",
"#X c #6AD1F5",
"$X c #7AD4F6",
"%X c #77D1ED",
"&X c #9C9A83",
"*X c #939398",
"=X c #AEAF90",
"-X c #9797B2",
";X c #A891AE",
":X c #F888BD",
">X c #EF90BA",
",X c #DF88A8",
"<X c #BAC7AE",
"1X c #94C5B0",
"2X c #D2D18D",
"3X c #F9F895",
"4X c #F1F392",
"5X c #D5D5AC",
"6X c #CFD2AC",
"7X c #FAF9A6",
"8X c #F7F8BB",
"9X c #EBE9B6",
"0X c #AAAAD0",
"qX c #A2BED7",
"wX c #FD8CC3",
"eX c #FB87C7",
"rX c #FA92C7",
"tX c #F695D1",
"yX c #D59AD6",
"uX c #8FCED8",
"iX c #A9D1D6",
"pX c #84D2EE",
"aX c #83D4F4",
"sX c #8AD8F8",
"dX c #9CDCF5",
"fX c #95DBFA",
"gX c #9BDDFB",
"hX c #95D9F5",
"jX c #8FC9E6",
"kX c #A7D8E9",
"lX c #B8DAE8",
"zX c #A7DDF8",
"xX c #B8D6F4",
"cX c #9BE1FC",
"vX c #ABE3FB",
"bX c #A7E3FA",
"nX c #BCE6FB",
"mX c #B7E6FA",
"MX c #FCFBC3",
"NX c #F4F6C4",
"BX c #C5C4E9",
"VX c #C7C7F5",
"CX c #D4D2EE",
"ZX c #C5EAFB",
"AX c #C4E6F8",
"SX c #FBFCFC",
"DX c #F7F7F8",
"FX c #EDEBF9",
"GX c #CFD0CF",
/* pixels */
"                                            V 4     o . .     = V                                                       ",
"                                          7 o . < * o . . * < o X 7                                                     ",
"                                          . e f + $ A A A ; . s e .                                                     ",
"                                          3 o.3.; w h.z.p.e - >.G 3                                                     ",
"                                      . n |.oX X3.8.f.m.wX:X>Xz.N.oXB..                                                 ",
"                                      . b }.|.XX3.5.5.;.I./.>X9.x.}.b .                                                 ",
"                                          6 6 6 1 1 1 F K p 5 ; 2 6                                                     ",
"                                        o.g s s h h s d d d s s e . m                                                   ",
"                                      # d 8.5.8.a.l.5.d ; ,.7.8.D ; # #                                                 ",
"                                  7 1 6.w.s.g.s.a.d.s.y.7.t.f.g.s.j.w.9.; 7                                             ",
"                            o o # 3.0.a.d.d.d.d.d.d.d.g.g.d.d.d.g.d.a.f.q.<.X                                           ",
"          m             m l D i.e.k.t.s.a.d.d.d.g.d.d.d.d.d.d.d.d.d.s.s.r.z.X O m                                       ",
"                        a Z w.t.s.h.s.f.a.s.a.g.k.j.d.d.d.d.d.d.d.d.g.a.a.l.h h d c.                                    ",
"              $ ; ; ; w 8.w.a.s.d.s.s.f.f.f.j.k.h.d.d.d.g.d.d.d.d.d.d.g.g.d.s.g.f.h O                                   ",
"          + w 2.r.a.s.g.s.g.s.d.d.d.h.7.7.6.k.g.g.d.d.d.d.d.d.d.d.d.d.g.g.g.a.r.2.a O                                   ",
"              X 1.j.a.d.d.d.d.d.g.g.d.k.y.>.5.5.7.8.d.g.d.d.d.d.a.s.w.5.7.7.s.e.X                                       ",
"          j l H 9.8.f.a.g.g.d.d.g.g.j.j.w.>.s ; ; e 8.r.d.d.d.a.t.8.d ; ; 1 f.y.D l 8                                   ",
"            +.d ,.6.w.r.s.s.a.s.j.f.k.s.0.h G M M l F ,.r.r.r.y.q.h G M O @ y.w.6.f +                                   ",
"              = G <.6.8.j.f.j.g.f.k.j.g.,.o 2X3X3X2X+ g <.<.<.,.S X x.7X$ X 6.<.3.a <                                   ",
"                V . <.9.1.u.i.9.6.6.8.g.4.. 2X3X8X7X3Xx.. . . . j 3Xo.. . @ 6.S X                                       ",
"                lXvXvXiX9 k 1.k . o 1 j.4.. 6X8XMX5X. c.MXMXMX8X5XX &XNX* o o                 xXvXvXlX                  ",
"                zXkX7 $ 3.G i =X5XO 1 f.,.+ 6X8XMX5X. c.MXMXMXMX6X. c.MX$ . .                     kXzX                  ",
"                  =Xa s w.S . 2X7X= 1 j.1.k uX=X8X5X. c.MXMXMX8X6X. &XMXm '.% 8                                         ",
"                V < <X6.g.,.+ N.4X= 2 uXXXf.a = 8X5XO c.MXMXMXMX6XO c.8X* o # XXpX              iX                      ",
"      m . . . * iX6 l.d.a.r.9.1 o aXsX3 h a.w $ 9XMXMXMXMXMXMXMX8X8X7X3X$ + q.4.< fXkX              zX                  ",
"          < g z.6Xk.d.a.a.,.+ V.cXhX[.|._.X 2X3XMXMX8Xc.. . . NX7X3Xo.. .X X* V     fXzX            lX                  ",
"          . e 8.t.g.s.g.a.w.D bXcX[.Z.z m D f j 4X7X8X9X5X5X5X7X2X2 $ o {.{.4         bXvX                              ",
"            M Z 4.1.t.a.y.1.bXnXOXV.B.o e J f a v.v.=X=X=X=X=Xv.b.c c B B.V.          jXnXkX                            ",
"              # # $ z.t.<.iXnXgX& & : & & : G <., # & & : $ $ $ i ~./.tXt 9             gXAXkX                          ",
"          . w 6.8.7.>.H 3 vXZXjXwXeXwXeX/.!.t & I.E.eX/.U.n.d.g.i.. O.!.eX>XX o o       jXZXmX                          ",
"              X Z <.- 5 zXAXvXyXwXwXeXeXeXeXR.R.: t rXm.k.'.[.oX1Xk.A @ >XrXrXF.+         vXnXdX                        ",
"              + Z 9.; N bXZXhXrXwXwXwXwXwXwXeX(.& t wXM.8._.}.}.'.k.S O W.E.wXK..         hXZXbX                        ",
"              o Z 9.$ sXmXAXpX:XwXrXwX/././.L.F.c U :X,X#.`.'.].&Xn.F o P.I./.L.4         pXZXmXsX                      ",
"              o Z >.; hXnXnX0XwXwXeXeX^.I.R.t # I.E.eX/.^.#.u.z.m.I.U . Y.R.R.S.*         jXnXmXhX                      ",
"              . A 7.uXdXnXmX)./.eXE.^.eXF.. . 5 X.A.^./.rX:XrXI.^.^.U + 4X4XX               mXmXfX%X                    ",
"                m + $XdXnXvX% X @ @ + # +.NXNX8X, r E ..*.%.=.! L @ D.VXVXBX*               zXnXhX$X                    ",
"            lX    3 $XdXAXzXG S D D G X :.7XGXCX0X;Xt @.I.E.T.W.K.* *XFXVXBXo               zXnXhXaX      lX            ",
"kX              8 XX$XhXmXzX>.6.5.Z <X. V 9XCXVXCXBXN G.S.(./.eXK.. *XSX-X-X                fXnXhXaXOX                kX",
"        = OXOX# + +X$XhXnXdXx.$Xx.- O & C.BXVXVXDXFXVX*X9 Y.R.:XF.O *XSX* 7             $X  gXmXhX$X#X    %XaX          ",
"    cXlX    sXN.e.#X$XsXmXdXfXdX% zXbXzXD.o 0XVXDXDXDXSXDX9 < . 8 VXFXSX9 8     zXgXzX  dXfXfXmXsX$X#X    sX    lXzX    ",
"      aXfXgXzXzXcX#X#XaXvXcXcXcXhXgXyX^.^.R.x 4 BXCXSXSXSXDXDXDXGXo `.BX4 7         fXgXcXgXdXmXaX$X@XcXcXzXgXfXsX      ",
"          OX$XaX%X+X+X@XbXgXaXsX$XrXwXBXxXeXP.S.9 N CXFXSXSXSXSXFX0XC.9 S.S.i         sXaXaXgXvX@X+X%X+XaXpX#X          ",
"        fXbXZXnXzXvXZXmXzXnXZXmXsX#XtXwXwXwXW.E.c B -XGXFXDXDXSXFXCX-XN O.S.c D.    #XfXvXZXZXbXmXZXvXcXnXZXbXfX        ",
"        $XOXhXzXaX@XhXbXvXhXaXhXgXaXrXwXeXwXrX:X^.Y.: C.VXFXSXSXSXDXCXxX5 : E.S..   pXdXhX$XsXmXvXdX%XsXdXhXOX$X        ",
"                    J.0XyX^./.eXwXwXwXwXwXwXwXrXtX/.!.U o 0XVXSXFXBXC.+ ,X:XeXK.@               XX                      ",
"                  X ' ] W P & H.^.eXrXrXrX:X:XrXwXwXwX(.^.5 o . . . O.I.wX:X!.U.E u O                                   ",
"                I P &.$.r u L X.` J.Q.J.@.c Y.R.wXwXwXeXeXK.K.S.H.S.U x R.E.` _ Q I 7                                   ",
"              v ' ) { ' X u ~ ^ [ } &.@.I r A.U.T.T.T.T.T.T.T.U.U.U.Y y S.S._ ^ X.Y y                                   ",
"          . y W [ *.{ ' X y !  .&.| $.X C _ ! ! *.{ *.{ | | *.{ ] ~ ~ E - # -.J.*.) Q 0 8                               ",
"          < y W  .*.%.$.X y W ] *.{ ' X C ~  .*.{ | { { { { | | { { ) W > , -.&.{ ) R 0 8                               ",
"          O y ! ] } > > E _ =.=.} - 0 T X. .| { | | | | | | | | | | }  ./ T - r &.) W > 8                               ",
"          P T ( *.-.- > ( ) *.{ &.# 0 ! ) | } *.{ | | | | | | | | | =.=.) E X q *.) W > 8                               ",
"      8 > ! ! _ ] &.- > ! ) *.{ %.# 0 ~ ) { | | | | | | | | | | | | %.{ ! E @ r | ^ W u u                               ",
"      8 > W ^ | | =.5 t ( ^ *.*.%.# 0 ~ ) { | | | | | | | | | | | | { | ~ E @ r | ) Q Q E X                             ",
"      8 - W W ~ ] &.- > ! ^ { *.%.- 0 ~ ) { | | | | | | | | | | | | { | ! E X r *.[ Q Q E @                             ",
"          - C R ~ E - > W ) =.*.} - 0 ~ ) { | | | | | | | | | | | | { | ! E X q ! Q Q Q E @                             ",
"              r y y , > ~ ~ _ ^ ^ - 0 R ! _ ^ ^ { { { { { { { { { { { | ~ ! X r ~ L y y v                               ",
"                        P L T L P @ > P L L E W ] ] ] ] ] ] ] ] ] ] ] ] L P X 0 L I                                     ",
"                        = O o O O O O o X X P E E R R R R R R R R R E / > O O O O                                       ",
"                                              X X X X X X X X . X X . X                                                 "
};
