/* XPM */
static char *ebd8408301ff4f2ce77c5bcdd55f6770JCS7uUmFq68N9V5N[] = {
/* columns rows colors chars-per-pixel */
"60 60 139 2 ",
"   c #30621F",
".  c #2F601F",
"X  c #2F611F",
"o  c #2D5D1E",
"O  c #2F6120",
"+  c #2E5D1E",
"@  c #2E5F1E",
"#  c #2E5E1E",
"$  c #306220",
"%  c #2F601E",
"&  c #2E5F1F",
"*  c #2F621F",
"=  c #30611F",
"-  c #2F611E",
";  c #306320",
":  c #2D5E1E",
">  c #2E601E",
",  c #2E601F",
"<  c #2F5F1E",
"1  c #2F5F1F",
"2  c #2D5D1D",
"3  c #2D5B1D",
"4  c #316420",
"5  c #30601F",
"6  c #326621",
"7  c #316521",
"8  c #316320",
"9  c #316520",
"0  c #326520",
"q  c #2D5C1D",
"w  c #2F5E1E",
"e  c #31631F",
"r  c #30631F",
"t  c #30641F",
"y  c #31641F",
"u  c #326620",
"i  c #316220",
"p  c #31621F",
"a  c #306420",
"s  c #336821",
"d  c #316620",
"f  c #336922",
"g  c #326721",
"h  c #316421",
"j  c #326521",
"k  c #336722",
"l  c #346922",
"z  c #346A22",
"x  c #336822",
"c  c #326420",
"v  c #346721",
"b  c #336721",
"n  c #326720",
"m  c #346921",
"M  c #366C23",
"N  c #336921",
"B  c #2E5E1F",
"V  c #336720",
"C  c #326821",
"Z  c #2F6220",
"A  c #2F631F",
"S  c #30611E",
"D  c #316621",
"F  c #336621",
"G  c #326722",
"H  c #346822",
"J  c #326822",
"K  c #336A21",
"L  c #336A22",
"P  c #356B22",
"I  c #346B22",
"U  c #356B23",
"Y  c #366E23",
"T  c #346B23",
"R  c #376F23",
"E  c #366D23",
"W  c #346A21",
"Q  c #356D23",
"!  c #376E24",
"~  c #366D24",
"^  c #387125",
"/  c #366E24",
"(  c #356C23",
")  c #356C22",
"_  c #387124",
"`  c #377024",
"'  c #356A22",
"]  c #376F24",
"[  c #387025",
"{  c #346C23",
"}  c #336A23",
"|  c #346C22",
" . c #356D22",
".. c #346A23",
"X. c #326922",
"o. c #366F24",
"O. c #366D22",
"+. c #326921",
"@. c #346821",
"#. c #336820",
"$. c #326820",
"%. c #346B21",
"&. c #336B22",
"*. c #377025",
"=. c #356D24",
"-. c #356E24",
";. c #356C24",
":. c #346923",
">. c #356A23",
",. c #377125",
"<. c #397326",
"1. c #3A7426",
"2. c #387225",
"3. c #397225",
"4. c #397226",
"5. c #376F25",
"6. c #366C24",
"7. c #376E23",
"8. c #366F23",
"9. c #356E23",
"0. c #367024",
"q. c #377124",
"w. c #387325",
"e. c #377224",
"r. c #387425",
"t. c #397425",
"y. c #377325",
"u. c #397426",
"i. c #377023",
"p. c #387224",
"a. c #356F23",
"s. c #397325",
"d. c #387024",
"f. c #31651F",
"g. c #377225",
"h. c #387326",
"j. c #387226",
"k. c #397324",
"l. c #3A7525",
/* pixels */
"  . X o . X O + @   X @ #   @ $ o   %   # &   * @ #   X = o   - ; o .   X . #   - = : X     # >     @ @   @   + * %   # ",
"= . , o . . . + @ X . @ # = @ X o = % X # & X X @ # = X . o   - X o . X X . # = - . : X = X # > X X @ @ X @ X + X % X # ",
"< @ o o @ @ + # 1 @ @ 1 # . . @ # . % & 1 # @ % , # 1 > @ 2 X % # # @ @ > & 2 < % # # % % : @ % @ @ . # > % @ # < . @ @ ",
"< # @ # @ + # X 1 # @ $ @ . & X . . @ , $ @ # % * @ 1 > X @ X @ @ X % # >   @ < < . > % # > X % # @ ; < > % X . % @ > * ",
"@ o X . < 3 . 4 5 2 @ 6 X < : 4 ; = 2 X 7 X o % 4 X % @ 8   . 2 X 9 = 2 @ 0 X @ # ; * X q * 4 X o > 6 = @ @ 4 ; X 2 X 9 ",
"X & @ = 1 1 . ; w X X $ % = . . e = . . 0 . X = r X   X = 8 = X X t % X . e .   . . ; = . X ; 1 X X $ % = . = ; $ . . 9 ",
"$ O #   1 $ X ; # 8   $ % 8 = . y = $ X u . ; i 8 * 4 ; = 4 = ; * 4 % 8 X p . 4   . 4 = ;   4 1 ;   $ % 8 X = a $ i X u ",
"  . $ 8 X X 8 6 . = 8 s = ; $ d 6   $ 4 f $ $ 4 s ; 8 8 7 9   $ 8 g = 8 ; g $ ; $ 9 0     h g . = 8 s = ; $ 6 j $ ; 4 f ",
"r   8 4 X * 4 k X   4 l   4 4 g 6   7 9 l $ 8 9 z a 8 4 6 9   4 8 x   c 4 s ; 4 4 6 u   8 j x X   4 z   4 h g 6 $ 7 9 l ",
"y 4   ; X 9 8 6 * 4 0 s 8 0 v 4 0   z 9 x   u 6 f 4 y u j 0 ; b   b   b 6 g ; u 6 7 0 ; b 9 b   9 0 s r 0 k 9 j   l 7 s ",
"9 r . X   9 = 4 X u 8 j $ b 0 8 4 r s ; 6   n h 6 r s 4 4 e 9 b = j   s h 7 $ s 9 a 8 9 6 ; 0   n 8 6   b 7 4 4 t b ; 6 ",
"g > # @ 4 r < * > m . $ X l X $   9 9 X a r s $   - M X * - s 0 . ; ; z O ; X z   * X g a X   * N X ; X z X ;   d 4 X ; ",
"9 % . B 4     X   V $   $ s   h * g r ; ; 4 n 4 ;   z ; a * s y 4 * 4 C ; a * s 8 a X g 4 ; $ a n ; $ $ N   4   g r ; * ",
"e %   B 4   4 X 4 0 4 r ; b r 7 * b r 9 ; 9 u 9 a   b 9 9 Z b y 6 * 9 d 9 a * 6 8 7 X g 4 9 $ 7 9 9 ; ; b r 9   b r 9 A ",
"S = X .   ; r ; 4 4 9 d 4 c 9 0 ; 4 9 9 7 a 9 9 6 8 4 9 0 ; 0 9 4 a 4 9 j 7 ; 4 4 9 ; 9 9 4 4 9 4 4 6 4 c 9 9 8 4 9 9 9 ",
"= = X   p $ r 7 4 ; 9 C 9 4 D u 0 9 9 9 b 7 4 9 b 4 9 9 0 7 0 h y 6 9 4 j g 4 c 9 9 0 0 4 9 F d 4 9 s 9 4 6 d j 9 0 9 g ",
"8 X X 4 c . 4 G 0 4 9 f g 6 9 g s f r 9 l x 0 u s g s d 6 x b ; u f g 4 9 s 6 F 9 u b s r 6 H n y d f g 6 9 g k f e 9 f ",
"9   * 9 0 ; 9 J c g 9 f 6 s 9 g N l 9 d z s b u N g K n g f s D g L g b 9 s 6 m u u s s d g l u n d f 6 s 9 g x l u u z ",
"6 4 ; j 4 g 6 s 8 z 6 s 0 z d g s s s g P u z g z 6 I s s l b f x l 0 P u N 0 P s g m b L s l c z g s 0 z d V s s f b P ",
"9 9 6 k 7 d x U 0 s x Y u N C T z g l z R b f f E s W N P z g f z M 6 W s Q b W l z z C s z E 6 N f Y 6 N C P z g l z ! ",
"4 9 x f 7 d L ~ u b l ^ n s f / ( g z ) _ b x z ` N m N E I g f ' ] g N z ] x N l E I C s ( ] g s z ^ g N f ! ( g z ( [ ",
"6 6 j g 6 s C U g l l ~ s z { } I s Q z Y s z z E f z z I L f { s ( C I z ( x I P z L N I z Q s z L / s z ( z z x Q z / ",
"g D 4 7 6 N 6 f u P s z s | I J z N  .f ( b P f I N ( K x f I ) 6 I C ( f z s  .I x f N | x ..b ) f I s ) P s f f  .f ( ",
"s ;   a u u 9 C t M n s n Q F X.N W m g T d ) C N n o.n b f ) W g z g Y C f d Y s g s z N g f d O.g N n E F x +.z @.g I ",
"g ; r a g u 9 g u P C g #.Q n X.s I s s z g P N C $.Y s s s ) m s s N ) s f n ( s g s I N b x s ) s s $.( n x +.I s s l ",
"9 4 4 r x V g 9 I s z g m | N s g Q N z s I W %.s N W I N u E m z u I N z s s z z s g ) W l g Q N z s N I K s s Q N z b ",
"a ; 4 4 6 u 6 g N b s l s K s l x z N f l N N N z s N N f b z x s s N s N l g N N l s W f s f I s s z C N f l x z x N l ",
"; ; 4 4 9 u 6 x s b g U b s s z x s N x I b s +.T b s C f s s x g L s s C z g s s l s s x s z N s C ( C s x z x s x s I ",
"D 9 4 g C 0 f T f @.z ( z I l U T ) x ../ z l { ( z T I T ( I f z Q I x &.( f I z z I I k I Q L x I Q L I T U T { l I Y ",
"g d 4 f N u I Q f W P Q ..{ z ( Q E f T *.( I =.Q T =.( ( / ( f ( o.P f T ~ z ( T z ( Q x Q o.L f ( Q T ( U ( Q -.l ( ` ",
"x 4 6 b b H f T b U f Q l Q J ( ( ( z z / ..;.f / ..-.L ( ( U I T Q L =.f =.l / :.T ( P T T Q l ( L Q f ~ s ( ( ( T z o.",
"k 9 g x b l z Q s T z o.l ( L / E >.) ( *...;...*.T =.I / Q U I ( o.f =...o.z ~ >.Q E P { ( o.l ( I ` L M l / ~ U ( ( ,.",
"6 g L T g s Q ` N f Q <.T U E ,.` l Y ] 1...U / <.( U Q ^ o.z ( / 2.z ( / 3.( ( ~ ` ] I P ] 4.z ' Y 1.T P E 2.5.l E ] 1.",
"g g g l s z I Y N I ( *.T M Y =./ z ] ~ ^ ..E ~ [ ( ( Q ~ E P E U ` z E ~ ] ( E ~ E ~ P O.E *.z P E ^ T ) Y / ~ ' R E [ ",
"f s 4 b m ( s z z Q P U U ! ] x U ( ^ ..M U ] ( 6.P / Q l P E ] s ( U ] ( P U ] Y l U M R z ( U E ( M U Y ] l U M _ z M ",
"s u j u s z f z g Y I ..z Y P T | ) E I E l 7.Q U W ] | U ( E E | Q z R ) ( z 8.) U I P O.I Q f Y | P z Y P U { ( O.U Q ",
"b 4 6 u C s f l 6 E I ..m Y K ( I  .W | E N 7.Q I N ` I ( ( Y ) Q ( I 7.) ( N 8.%.U I ) P | ( N Y | I L Y K ( T Q W ( Q ",
"g 7 4 9 l N s g ..{ U H z Y U L K ! ) U I ( M ( z z Y ( z l ] ( | N ( Q ( z f Y ) L L E ) I K Q Q ) l I Y U I z ! ) I z ",
"6 h 4 4 s s b b I ..z ' z Q I z N E P T I | U I I l Q I z s Y U z N ( ( T z f Q I z f Q P z z Q U I P z Q T I l E I I z ",
"8 ; 0 0 u n 6 z C l s M N z N ) z z z L ( N z s Q x z N T l I z s I l I f ( x z N P z z z f ( z z s E f z f ( z z K L ) ",
"0 9 0 s b n f ( N l I Y I ( z ) Q ( z | o.I I ) 9.I ( I ( ( ) z I Y P I I Q z ) I P ( ) z { Y I z I Y I ) I Q ( ( K | 8.",
"s g d I z d ( / z z / o.Q / ( E 0.` z 9.2.Y ) ` o.Y ] / Y *.Y I 8.2.Y z 9.o.( Y Q { o.Y l o.q.( z / o.Q Y Q Y ] ` z 9.w.",
"b 4 g N N 6 I Q f z ..` I E f Y 9.Y f ) ` Q ( P ` ) Y ..Y / Q L  .` ) P z ` I / z Q Q Q l Q 0.I I P *.I E l ] E Y f ) q.",
"b r s s s g I 9.x z f e.l E s 8.Q Q z ) ` ( ( m q.z E f 8.Q ( &.) 0.z P l q.L / m Y Q ( z  .0.z I W ,.L E @.]  .E z ) q.",
"6 g z I g f 9.q.f z Q r.I ( O.q.0.I Y 8.t.I Q 7.r.( ) Q q.o.I Q 8.y.I E Y w.{ E E ` o.I ( 0.w.I ) 9.u.I ( E ^ 8.I Y 8.r.",
"k f s P s I ) ` L ( 9.2.| E R ] ` T q.Y t.I Y i.2.Q Y / o.o.( ] Q e.) ] 8._ Q 7.] Y ] ( Y / p.) Y a.s.| E ` ] ] I q.Y w.",
"..x e m ' E V ) T *.| M Q ` ` l Y ~ 2.m R Q _  .E E _ Q l Q ] ^ b Y Y 2.I ) Y _ 8.@.Y ! ` l Y E ^ | E Q d.] l E Y w.l 8.",
"f g 4 b z ( s z ..` | U ( ` Y z Q ~ ] z E { `  .( ( ` Q z ( o.` z ( Q q.I I ( ` Y l Q / R z ( ( q.| ) ( ` E z ( Y ` z Q ",
"g d 6 u C z I N x Y Q z I Y I Q I ( ) Q ) L Y Y I z Y  .( I Q O.o.z I Y Q ( L Y ( ( I ( O.Q I L 8.Q T z Y I Q I ) ) Q { ",
"b 0 4 f.f N N C ..( ) f z R ) I L / ) I I { E Q z z ! ( z N o.( ( N (  .) z N Y ( z K Y ) I L ( Q ) z z Y ) I K Y ( I &.",
"b 0 r y z N n C ( U P L z 7.) L f ! ) z z Q E ( I z ! ( f C ] ( z N Q  .P L N Y ( N N 8.) f f Y ( P z z Y ) L N ! ( z L ",
"9 4 u 0 b u C z z l m Y z ) z ( T ( W I Q I z z Q z U z { f ( z L I I W W ( z P l I z ) m z ( P z W Y z P W ( z ( l I { ",
"9 4 u k g u N ( x l z Y z P ..Q Q I z I o.z z U Y I U I ( ( I z I Q z z z ~ z U z | P I m I E z z I 8.z P I Q ( U l I / ",
"6 g e :.x b z ) b U 9.I P M =.I / Q U ( ` U U 0.Q ) / 8.I o.) U ( o.T U Q ( z ~ Q N E Q ' ( o.m U 9.) z E 9.I E ~ U { *.",
"b g 9 ..x s I Y s ( ~ Q P E ( ( o.Q U ( e.U ( o./ ) ! Y ( ` ) ( Q ` T U =./ I / Q P Y Q P Q ` m ( / Y I E Q ( Y ~ U Q g.",
"b 9 N T s s ( ` f U U 2.) M z ` ` ( z Q w.( ( ( 2.Q E P ` ] U I / 2.( ( T 2.( E I ] o.( ..Y 2.z P ( 2.) ( z ` o.( z Y w.",
"g b z P g z Q ^ L P ~ s.( ) E ` q.I Y o.u.I E / <.Q ) E q.] I Q Y w.I E -.w.{ E Y ` ] I ( o.h.I ) / <.| ( E q.0.I Y ] u.",
"g l l P g I Q [ L ) / s.(  .` ] q.L _ o.u.z Y ] <.Q  .Y ` ] | 8.E 2.z 8.o.2.{ Y ` ] ] I Y o.j.I  .! <.| Q ` ` 0.z _ ] <.",
"z b 9 s z ( C ( I d.T / I _ Y I Y Q q.I o.( q.( / | p.) T ( ] ` N 9.( k.T Q ) p.Y I ( Y R z Y ) _ T / I q.E | Q Q ` I o.",
"( 6 * g ) Q 9 l I 3.f U I s.Q s ) 8.q.s ( Q w.z T I l.I x z ^ _ d | Q l.f z ) t. .s I ` i.b P ) s.f T I w.) N U o.` s ( "
};
