/* XPM */
static char *_5e55aa5a1d840cd8ca843635c9468ed5uYvgL4FazJ0uRPb[] = {
/* columns rows colors chars-per-pixel */
"60 60 240 2 ",
"   c None",
".  c #060808",
"X  c #150502",
"o  c #13140A",
"O  c #0C2D03",
"+  c #333333",
"@  c #312208",
"#  c #4E1B15",
"$  c #653114",
"%  c #294D07",
"&  c #2A6B04",
"*  c #267501",
"=  c #2B7402",
"-  c #2B7901",
";  c #257901",
":  c #337604",
">  c #34670D",
",  c #4B5B0B",
"<  c #4C6607",
"1  c #507337",
"2  c #BB3313",
"3  c #C92C09",
"4  c #D72702",
"5  c #D82603",
"6  c #D42904",
"7  c #D92806",
"8  c #DA290B",
"9  c #D72809",
"0  c #D62C12",
"q  c #DB2B14",
"w  c #DA2D1C",
"e  c #D62F1A",
"r  c #C33417",
"t  c #CC2E12",
"y  c #DB2D24",
"u  c #DB2E2A",
"i  c #DB322C",
"p  c #D4362B",
"a  c #CB373A",
"s  c #DC3433",
"d  c #DD363A",
"f  c #DE383D",
"g  c #D63832",
"h  c #CB392B",
"j  c #E0260C",
"k  c #B14A05",
"l  c #B34A08",
"z  c #B2521B",
"x  c #AB4E0E",
"c  c #866F02",
"v  c #896F01",
"b  c #856E0A",
"n  c #877000",
"m  c #887102",
"M  c #8A720C",
"N  c #85700D",
"B  c #876A18",
"V  c #8D7314",
"C  c #8E751B",
"Z  c #867517",
"A  c #91741D",
"S  c #917516",
"D  c #906F18",
"F  c #BB4C2A",
"G  c #B75227",
"H  c #BA4E31",
"J  c #B6563C",
"K  c #8F7522",
"L  c #8F772D",
"P  c #917523",
"I  c #92762C",
"U  c #92792E",
"Y  c #98732D",
"T  c #8C7635",
"R  c #947632",
"E  c #997535",
"W  c #937933",
"Q  c #967A3A",
"!  c #99783C",
"~  c #AC6628",
"^  c #915E2D",
"/  c #CA4D31",
"(  c #D2702D",
")  c #E46238",
"_  c #E45837",
"`  c #DD3643",
"'  c #DD374B",
"]  c #DE394C",
"[  c #DE3944",
"{  c #DE3954",
"}  c #DE3D5C",
"|  c #DF3752",
" . c #E03A54",
".. c #E13B5C",
"X. c #E03C4C",
"o. c #DE3E63",
"O. c #DF3C68",
"+. c #E13C64",
"@. c #E43C75",
"#. c #BB5945",
"$. c #BC5D57",
"%. c #AF5445",
"&. c #997B44",
"*. c #967C4C",
"=. c #9A7C4C",
"-. c #957C45",
";. c #9C7D55",
":. c #9C7E5C",
">. c #957D54",
",. c #887242",
"<. c #9A7E64",
"1. c #BE6576",
"2. c #B46A64",
"3. c #F67646",
"4. c #DE436B",
"5. c #DE4165",
"6. c #DF4674",
"7. c #DF4A78",
"8. c #E0456D",
"9. c #E14979",
"0. c #6D855A",
"q. c #938A2A",
"w. c #C58229",
"e. c #C68434",
"r. c #C88435",
"t. c #FD9935",
"y. c #FC973B",
"u. c #F5993D",
"i. c #FC983B",
"p. c #FA9738",
"a. c #988159",
"s. c #97804F",
"d. c #9C8164",
"f. c #9D836B",
"g. c #958365",
"h. c #9C8473",
"j. c #9C867A",
"k. c #A2836C",
"l. c #A48778",
"z. c #B48969",
"x. c #C78C4C",
"c. c #D09058",
"v. c #F59B42",
"b. c #FC9A43",
"n. c #FC9B4C",
"m. c #F59A47",
"M. c #F99C55",
"N. c #EA9C4E",
"B. c #E9A350",
"V. c #C88E66",
"C. c #CE957A",
"Z. c #CC916E",
"A. c #FD9E63",
"S. c #FC9F6B",
"D. c #FC9F73",
"F. c #F69F74",
"G. c #FCA064",
"H. c #FCA06C",
"J. c #F7A36D",
"K. c #FCA173",
"L. c #FCA27B",
"P. c #F6A47C",
"I. c #EEA272",
"U. c #DF4C86",
"Y. c #DF5296",
"T. c #E24B84",
"R. c #E1528B",
"E. c #E25496",
"W. c #E54994",
"Q. c #E558A9",
"!. c #E35DBA",
"~. c #F945B0",
"^. c #DA6997",
"/. c #DF64D1",
"(. c #E968D5",
"). c #FB69EA",
"_. c #FC72F8",
"`. c #FE5BDC",
"'. c #9C8A87",
"]. c #9A8D94",
"[. c #95909E",
"{. c #A58B89",
"}. c #A38B99",
"|. c #AE9197",
" X c #9695B2",
".X c #AB96AF",
"XX c #FCA483",
"oX c #FDA68C",
"OX c #F9A68A",
"+X c #FDA993",
"@X c #FDAA9B",
"#X c #F9A895",
"$X c #EA88B6",
"%X c #FDADA3",
"&X c #FBAEAA",
"*X c #FCB0AA",
"=X c #FBAFB3",
"-X c #FDB0B3",
";X c #FDB3BD",
":X c #F6B3B3",
">X c #D49EA5",
",X c #CCDEBE",
"<X c #959CD0",
"1X c #AA99C9",
"2X c #B4A2C9",
"3X c #BCA7D9",
"4X c #9AACF7",
"5X c #9EBDFE",
"6X c #95A7E6",
"7X c #9DA4E6",
"8X c #EB8BCE",
"9X c #FDB4C4",
"0X c #FDB6CB",
"qX c #FDBACC",
"wX c #FCBAD5",
"eX c #FEBEDB",
"rX c #FDB5D7",
"tX c #E1AEC9",
"yX c #EF97F1",
"uX c #C8B6F0",
"iX c #FDBCE5",
"pX c #FABBF4",
"aX c #E6ADE4",
"sX c #D390E4",
"dX c #FEC6DE",
"fX c #D5CCF7",
"gX c #FDC3E3",
"hX c #FDC8EB",
"jX c #FDDAEA",
"kX c #FAC8F7",
"lX c #FCD3F4",
"zX c #FCDDF4",
"xX c #FBDDFC",
"cX c #F8D5FA",
"vX c #EFC8F9",
"bX c #FDE4FD",
"nX c #FEEBFC",
"mX c #F9E7F8",
"MX c #FDF4FD",
"NX c #FEFDFE",
/* pixels */
"                            s s s s s s s s s d d d f f f ` ` ' ' ] { { { ..+.{ ~.                                      ",
"                            s d s d d d d f d d f ` ` ' ' | { { { } o.} O.+.@.o.~.                                      ",
"                            d s d d d d f f f ` ` ' | | { { } } o.5.4.4.6.9.T.4.`.                                      ",
"                            d d d d f f f ` [ ' ] | | { } o.o.4.4.6.7.7.T.T.W.7.).                                      ",
"                  a s s d d d d f f f f [ ] ] ] |  ...+.o.8.6.6.T.U.U.Y.Y.Q.Q.R._.R.T.9.9.9.4.4.5.5.} {  .' '           ",
"                  a s s d d d f f f [ ] ] ]  . ...} o.4.8.6.U.U.Y.Y.Q.Q.!.!./.Q.yXQ.E.R.R.T.9.9.6.4.4.o.{  .'           ",
"                  a s s d f f f [ [ ] X. . .} } o.o.6.9.T.R.E.Q.!./.(./.(.(.).).pX).Q.Q.E.E.R.R.U.7.6.4.5... .          ",
"                  %.J J J #.#.#.#.$.$.$.$.$.$.2.1.1.1.^.^.$X8X8XyXyXyXaXaXsXyXyXcXyX8X8X$X$X                            ",
"                  *.-.-.*.*.*.=.;.:.:.<.d.f.f.l.l.{.}.}.0XrXpXpXkXkXkXlXlXuXkXkXMXkXkXgXeXwX                            ",
"                  >.>.>.a.a.:.:.d.f.f.h.h.j.'.{.}.}..X.XiXpXkXkXlXlXlXzXmXfXxXxXNXnXcXlXhXgX                            ",
"                  <.<.g.g.f.h.h.j.j.'.'.'.'.}.].[..X1X1XiXkXkXlXzXnXnXnXnXnXMXNXNXNXbXbXmXzX                            ",
"          ].].[. X X X<X<X7XpXpXpXpXuX4X4X4X4XvXkXlXcXcXzXbXnXnXnXMXMXMXMXNXNXNXNXNXNXnXbXxXxXcXlXlXlXlXlXlXkX          ",
"           X X X<X<X6X6X4X4XkXkXkXkXfX5X5X5X5XcXlXlXcXcXxXxXbXbXnXnXMXMXNXNXNXNXNXNXNXMXnXbXbXbXbXbXxXbXbXbXxX          ",
"          *.>.a.>.a.a.a.g.g.oXoX+X@X>X'.'.].].=X;X;X0XqXwXdXdXjXjXjXjXzXmXmXNXNXNXNXbXzXzXlXhXhXgXdXeXeXwXrX0X          ",
"          -.-.-.-.*.-.*.s.s.L.P.XXoXC.h.j.'.'.&X=X;X9XqXqXqXqXwXeXgXhXhXlXfXcXmXNXxXlXhXhXhXgXgXdXwXwXqX9X9X=X          ",
"          Q Q Q ! &.-.*.-.*.K.K.L.XXC.f.h.j.'.'.'.].'.{.*X-X;X;X0XwXeXiXhXkXlXlXMXvXuX3X3X2XwXqX9X;X;X;X;X&X%X@X+X+XoXOX",
"          W W W Q ! ! &.&.&.K.K.K.L.Z.d.f.h.k.h.h.j.j.l.%X%X*X-X-X;X9X0XeXiXhXgXnXaX2X2X.X.X9X-X-X-X&X%X@X@X@X+XoXXXXXXX",
"          W E W W W Q Q ! &.H.H.H.K.Z.a.:.d.:.<.d.f.f.k.+X@X@X%X*X-X-X;X;X0X0XqXzXtX.X.X|.}.-X*X%X%X@X@X+XoXoXXXXXL.L.L.",
"          Y E E E W W Q Q ! J.J.J.J.V.&.=.;.;.:.:.<.d.<.oX+X+X+X@X%X%X%X%X:X:X:XhX>X|.{.{.{.&X@X#X#X#XOXOXOXXXP.P.P.K.I.",
"          Y E E E E W Q Q Q Q Q Q ! x.S.H.K.K.L.L.L.XXXXXXoXoXoX+X+X+X@X@X{.{.{.>X{.l.l.l.h.h.f.f.f.d.d.:.:.;.          ",
"          I Y E E E E W W Q Q Q Q ! x.H.H.H.J.K.D.D.L.L.XXXXXXXXoXoXoXoX+Xl.l.k.|.l.k.k.k.k.d.d.d.d.a.:.;.=.=.          ",
"          P I U U U Y W W W W Q Q Q x.G.G.G.G.J.H.H.K.D.L.L.L.L.XXXXXXXXoXk.k.d.l.d.d.d.<.:.:.:.:.;.>.=.-.&.!           ",
"                            x.x.x.x.N.A.G.H.A.G.G.S.S.S.S.D.K.D.K.L.L.L.P.Z.Z.Z.C.Z.V.Z.V.V.V.V.V.V.V.                  ",
"                            A.A.A.A.G.A.A.A.A.A.A.G.S.S.S.S.S.S.K.K.D.K.K.L.D.K.XXK.K.K.D.K.K.S.S.S.F.                  ",
"                            A.A.A.A.A.A.A.A.A.G.A.A.A.A.A.S.S.S.H.S.S.D.K.S.S.D.S.S.S.S.S.S.H.S.S.S.F.                  ",
"                            M.M.G.G.G.G.G.G.A.A.A.A.A.G.G.A.S.S.S.H.S.S.H.S.S.S.S.S.S.S.S.S.A.S.A.G.I.                  ",
"                  ,.R R R T Y Y E E E E E E W p g g g / E E E E E E E E E E E E !                                       ",
"                  T U U U R R R R W W W W W W d d d s g W W W W W W W W W W W W W                                       ",
"                  T I U U U E U U W W W W W W d s s s p W W W W W W W W W W W W W                                       ",
"                  T I I I U U U U U U W W W U s s s s p W W W W W W W W W W W W W                                       ",
"          K P K C K P P P I U I U U U U U W U d s s s p U W W W W W W W E s s s i H W W W W W W W W U W W W U           ",
"          K K P P P P P P P I I I U U U U U U s s s s p U W W W W W W W E s s s s H W W W W W W R W W W W W W           ",
"          C C P K P P P P P P P I I U U U U W i i i s h U W W W W W W W E s s s i H U W W W W U U U U U U U U           ",
"          C C C K P K P P P P P K P P I I I L u u u u h U E E E R R R R E s s s i H U W W W W U U U U U U U U           ",
"M M V V Z C C A A A C P P P K P P P P P P P I i u u u u i i i i i i i i i i i i i F Y U L U U U U U I I I I U I I K K P ",
"M M M V V V V C C C C C C A P K K K P P P P K y y u u u u i u u u u i u u i i i i F I I I U I U I I I P P K P P P P P P ",
"m m M M M V V V V V C C A C C A C C P P P P K y y y y i i u u u y h $ X X y u u u F I I P P K K P P P K K P K P P C C P ",
"w.w.( w.w.w.w.w.e.e.e.e.e.w.C C A A ~ z z G G ) ) ) ) _ y J @ o . . . . w ) ) ) ) / F G G F P P P P P e.r.r.r.r.r.e.e.e.",
"y.i.i.i.i.i.b.b.b.n.n.n.m.m.V C V V z w w e w n.n.M.< > ,X0.O o . . # q y M.M.M.M.3.w y w w P P P P A n.n.n.n.n.n.n.n.m.",
"y.i.i.i.i.i.i.i.b.b.b.b.m.m.V V V V z q q 0 e M.: = = > 1 % % o X e y w w n.n.M.n.3.e w e w A V V C A n.n.n.n.n.n.n.m.m.",
"y.i.i.y.y.i.i.u.i.i.n.i.b.b.M M V Z x q ~ B : = * = = * & > $ e q q q e q n.n.n.n.3.q q q e D D V V S n.n.n.n.b.b.b.b.m.",
"t.i.i.i.y.y.y.p.i.i.i.B.+ B.v.v.v.B.: : ; = = = * * = , r q 0 q q q q q q 0 0 0 0 0 q q q 0 m.v.m.m.v.v.b.b.b.b.b.b.b.b.",
"p.p.i.i.i.i.i.y.y.i.p.u.. + B.q.: - = = = * = = , 2 8 8 8 8 8 8 8 8 8 8 8 8 8 8 8 8 8 8 8 8 b.b.b.b.b.b.b.b.b.i.i.u.u.u.",
"p.p.i.i.i.i.i.y.y.y.y.t.z.O * - - - - * * < t 7 9 8 8 8 8 8 8 8 8 8 8 8 8 8 8 8 8 8 8 8 8 8 b.b.i.i.i.i.i.i.i.i.i.i.i.p.",
"p.i.i.i.i.y.i.i.i.y.n.o . . & * - = < 3 9 7 7 8 7 5 5 5 7 7 7 7 7 7 7 7 7 7 7 7 7 7 7 7 7 8 y.i.i.i.y.y.i.i.i.i.p.p.y.p.",
"p.p.p.p.p.i.y.p.i.i.y.m.. . O , 3 9 5 5 9 5 5 5 7 5 7 7 7 7 7 7 7 7 7 7 7 7 7 7 7 7 7 7 7 7 8 9 6 6 9 i.i.i.i.p.i.i.y.i.",
"u.p.p.N.$ y.u.y.i.i.y.u.m.y.X @ 4 5 5 5 5 5 5 5 5 5 5 5 5 7 7 7 7 7 7 7 7 7 7 7 7 7 7 7 7 7 7 7 7 7 6 y.u.u.p.y.y.y.y.p.",
"t.m.. . . ^ t.y.y.y.y.y.t.y.j # 5 4 4 5 5 5 5 5 5 5 5 5 5 5 5 5 5 7 7 7 7 7 7 7 5 5 5 7 7 5 5 5 5 5 4 y.y.y.y.y.y.y.i.p.",
"v.p.X . . X u.t.u.p.y.y.y.y.4 4 4 4 4 4 4 4 4 5 5 5 9 5 6 6 6 9 7 5 5 5 5 5 5 5 5 5 5 5 5 5 5 5 5 5 6 v.v.v.u.v.v.u.v.m.",
"                  2 4 4 4 4 4 4 4 4 4 4 4 4 4 4 4 4 4 3         r 5 5 5 5 5 5 5 7 7 5 5 5 5 5 5 5 5 3                   ",
"                  t 4 4 4 4 4 4 4 4 4 4 4 4 4 4 4 4 4 3         2 4 4 4 4 5 5 5 5 5 5 5 5 4 4 5 4 4 3                   ",
"                  t 4 4 4 4 4 4 4 4 4 4 4 4 4 4 4 4 4 3         2 4 4 4 4 4 4 4 4 4 4 4 4 4 4 4 4 4 3                   ",
"                  x k k k k k k k k k k k k l                             l k k k k k l k k k k k k x                   ",
"          n n n n m n n m m n n n n n n m v v                             n n n n n n n n n n n n n v v v v v           ",
"          n n n n n n n n n n n n n n n n v v                             n n n n n n n n n n n n n n n n n c           ",
"          n n n n n n n n n n n n n n n n v v                             n n n n n n n n n n n n n n n n n c           ",
"N N b b N n n n n n n n n n n n n n n n n v v                             m n n n n n n n n n n n n n n n n n b c b N B ",
"n n n n m n n n n n n n n n n n n n n n n v v                             m n n n n n n n n n n n n n n n n v n n n n n ",
"c n n n n n n n n n n n n n n n n n n n n v v                             c n n n n n n n n n n n n n n n n n n n n c m ",
"c n n n n n n n n n n n n n n n n n n n n v v                             n n n n n n n n n n n n n n n n n n n n n c m "
};
