/* XPM */
static char *e8ab7e54160c4e9e92c3698229696718tN1gWJUbjiFJQrgv[] = {
/* columns rows colors chars-per-pixel */
"60 60 142 2 ",
"   c None",
".  c #7F710D",
"X  c #7F6D15",
"o  c #7A6D27",
"O  c #7B6728",
"+  c #7A6E2B",
"@  c #7E7321",
"#  c #7A702B",
"$  c #AB3500",
"%  c #BB3700",
"&  c #BB330F",
"*  c #BE3413",
"=  c #CA2B00",
"-  c #C52D0A",
";  c #CB2B0F",
":  c #D62601",
">  c #D82600",
",  c #D42801",
"<  c #DA2902",
"1  c #C43201",
"2  c #CA3000",
"3  c #C03D00",
"4  c #E02202",
"5  c #9E5C00",
"6  c #A75B00",
"7  c #AF5B06",
"8  c #AE5208",
"9  c #AD5C0A",
"0  c #B15105",
"q  c #866E01",
"w  c #896E01",
"e  c #836D0C",
"r  c #896C0A",
"t  c #9E6204",
"y  c #956A00",
"u  c #986800",
"i  c #877000",
"p  c #887101",
"a  c #8A7805",
"s  c #86700A",
"d  c #8D7009",
"f  c #937106",
"g  c #826F19",
"h  c #906213",
"j  c #857110",
"k  c #84711C",
"l  c #A06700",
"z  c #A06A00",
"x  c #B0640A",
"c  c #A6730A",
"v  c #B07D13",
"b  c #82712C",
"n  c #CD7A1E",
"m  c #EB6B27",
"M  c #DF6C43",
"N  c #DC6E48",
"B  c #BA8A1E",
"V  c #BE8C21",
"C  c #C78620",
"Z  c #CB8422",
"A  c #C18E23",
"S  c #CC8925",
"D  c #FF8E3C",
"F  c #EE9F3A",
"G  c #FC9736",
"H  c #F59B35",
"J  c #F89B34",
"K  c #F99837",
"L  c #FB9936",
"P  c #FA9837",
"I  c #FA9937",
"U  c #FB9937",
"Y  c #FA9A36",
"T  c #FB9934",
"R  c #FC9934",
"E  c #FE9835",
"W  c #FC9836",
"Q  c #FD9836",
"!  c #FC9837",
"~  c #FF9837",
"^  c #FC9935",
"/  c #F89238",
"(  c #FF903A",
")  c #FA973A",
"_  c #FC9638",
"`  c #FD9738",
"'  c #FD9739",
"]  c #FF9638",
"[  c #FE9738",
"{  c #FF9738",
"}  c #FE953A",
"|  c #FC973A",
" . c #FD973A",
".. c #FD973B",
"X. c #FF963A",
"o. c #FE973A",
"O. c #FE963B",
"+. c #FF903C",
"@. c #FF923C",
"#. c #FF913F",
"$. c #FD963A",
"%. c #F29B39",
"&. c #F59838",
"*. c #F69A3C",
"=. c #F79D3F",
"-. c #FB9838",
";. c #FA9938",
":. c #FB9938",
">. c #FA9839",
",. c #FB9839",
"<. c #FA9939",
"1. c #F89A38",
"2. c #FA9A38",
"3. c #FA983A",
"4. c #FB983A",
"5. c #FA993A",
"6. c #FA983B",
"7. c #FB983B",
"8. c #FB993B",
"9. c #FC9838",
"0. c #FD9838",
"q. c #FC9839",
"w. c #FD9839",
"e. c #FD9939",
"r. c #FE9839",
"t. c #FC983A",
"y. c #FD983A",
"u. c #FE983A",
"i. c #FE9B3B",
"p. c #FF9B3B",
"a. c #F8983C",
"s. c #FA983E",
"d. c #FB993F",
"f. c #FC9B3D",
"g. c #FC9838",
"h. c #EDA03B",
"j. c #AB8E43",
"k. c #A99040",
"l. c #AA9140",
"z. c #AC9042",
"x. c #FF8E40",
"c. c #F3A141",
/* pixels */
"                            > > > > > > > > > > > > > > > > > > > > > > > > > > : N                                     ",
"                            > > > > > > > > > > > > > > > > > > > > > > > > > > : N                                     ",
"                            > > > > > > > > > > > > > > > > > > > > > > > > > > : N                                     ",
"                            > > > > > > > > > > > > > > > > > > > > > > > > > > : M                                     ",
"                  - > > > > > > > > > > > > > > > > > > > > > > > > > > > > > > > > > > > > > > > > > > > > >           ",
"                  - > > > > > > > > > > > > > > > > > > > > > > > > > > > > > > > > > > > > > > > > > > > > >           ",
"                  ; > > > > > > > > > > > > > > > > > > , > > > > > > > : > > > > > < > > : > > > > > > > > >           ",
"                  h t t t t t t t t t t t t t t t t t 6 D +.+.+.+.+.+.+.+.5 t t t n ( +.+.+.                            ",
"                  e i i i i i i i i i i i i i i i i i i 8.9.9.9.9.9.9.9.' p i i q B 9.9.9.Y                             ",
"                  s i i i i i i i i i i i i i w q q i i 8.9.9.9.9.9.9.9.' p i i w c 8.9.9.8.                            ",
"                  j i i p i i i i i i i i i w w i i w i Y 9.9.9.9.9.9.9.' p i i i V 8.9.9.)                             ",
"          i q i w w i i i w 8.' ' 9.h.i i p w a.' ' 8.%.8.9.9.9.9.9.9.9.' p i i q A 8.9.9.8.=.8.W K 8.8.Y 8.R           ",
"          i i i i i i i w p 9.9.9.8.F i i i w 9.9.9.9.9.9.9.9.9.9.9.9.9.' p i i i v 8.9.9.9.9.9.9.9.9.9.9.9.'           ",
"          i i i i i i i w q 9.9.9.8.F i i p w K 8.8.' 8.W 9.9.9.9.9.9.9.' i w w i B 8.8.8.' 9.W 9.9.9.9.9.9.'           ",
"          i i i i i i i w q 9.9.9.8.F i i i i ' W W 9.9.Y 9.9.9.9.9.9.9.8.i i i p V 9.W W 9.' 8.9.9.9.9.9.9.W           ",
"          i i i i i i i w q G 9.9.8.F i i i i w i i i p 8.9.9.9.9.9.9.9.9.9.9.9.8.C i i i p 8.8.9.9.9.9.9.9.9.9.9.9.9.9.",
"          i i i i i i i w a 9.9.9.8.F i i i i i i i i i 8.9.9.9.9.9.9.9.9.9.9.9.8.C i i i i 9.8.9.9.9.9.9.9.9.9.9.9.9.9.",
"          i i i i i i i i i G 9.9.W F w i i w i w w i i 8.9.9.9.9.9.9.9.9.G 9.9.9.Z w i i i 8.8.9.9.9.9.9.9.9.Y ' W W W ",
"          i i i i i i i i w 8.9.9.' c.w w w p w w w p w 9.9.9.9.9.9.9.9.' &.9.9.8.S i i i q *.' ' 9.' 9.' ' ' 9.' 8.G / ",
"          i i i i i i i i i i i i w y 9.9.9.9.9.9.9.9.9.9.9.9.9.9.9.9.9.' p i i i i i i i i i i i i i i i i i           ",
"          i i i i i i i i i i i i w y 9.9.9.9.9.9.9.9.9.9.9.9.9.9.9.9.9.' p i i i i i i i i i i i i i i i i q           ",
"          i w w i w p w i i w i i w y 9.9.9.9.9.9.9.9.9.9.9.9.9.9.9.9.9.' w i i i i i i i i i i i i i w w w w           ",
"          X g k g k X k k @ y y y y l 9.9.9.9.9.9.9.9.9.9.9.9.9.9.9.9.9.8.y y y y y y y y y y y y y u g g g g           ",
"                            9.9.9.9.9.9.9.9.9.9.9.9.9.9.9.9.9.9.9.9.9.9.9.9.9.9.9.9.9.9.9.9.9.9.9.9.a.                  ",
"                            9.9.9.9.9.9.9.9.9.9.9.9.9.9.9.9.9.9.9.9.9.9.9.9.9.9.9.9.9.9.9.9.9.9.9.9.a.                  ",
"                            8.8.8.8.8.8.8.Y W Y W W 8.8.' 8.8.8.8.8.8.8.8.8.Y 8.Y J R 8.8.G ' ' ' 9.H                   ",
"                  X q s r w p i i p i p i i w < : : : = i p p i p i p p i p i i q z.                                    ",
"                  e i i i i i i i i i i i i i , > > > : w i i i i i i i i i i i i l.                                    ",
"                  j i i i i i i i i i i i i i : > > > : w i i i i i i i i i i i i l.                                    ",
"                  . i i i i i i i i i i i w w > > > > : w i i i i i i i w w p p s j.                                    ",
"          p q p q q i i i i i i i i i i i i w > > > > : w i i i i i i p i 4 : : > 1 w p p p p p p p q p q p w           ",
"          i i i i i i i i i i i i i i i i i i : > > > : w i i i i i i i i : > > > 3 i i i i i i i i i i i i p           ",
"          i i i i i i i i i i i i i i i i p w , > > : : w i i i i i i i p : > > , 0 i i i i i i i i i i i i q           ",
"          i i i i i i i i i i i i i i i i i w , > > > : i i i i i i i i i : > > : % i i i i i i i i i i i i p           ",
"i i p i q i i i i i i i i i i i i i i i i i i > > > : > > : : : : : : : > , > > > 3 i i i i i i i i i i i i q p i i i q ",
"i i i i i i i i i i i i i i i i i i i i i w i : > > > > > > > > > > > > > > > > , 8 w i i i i i i i i i i i i i i i i i ",
"w w w w w w w w w w w w w i i i i q w i i i w > > > : > > > > > > > > > : : > > > 1 r i i i w i i i i i w w w w w w w p ",
"u u u u u u u u u u u u u u i i i w f 9 9 9 9 1 1 1 2 1 < > > > > > > > > 1 1 1 2 $ 9 9 9 7 i p i i i u u u u u u u u z ",
"9.9.9.9.9.9.9.9.9.9.9.9.9.9.i i i i t > > > : 8.' ' ' 9.: > > > > > > > > 8.9.9.9.m > > > > w i i i p W 9.9.9.9.9.9.9.8.",
"9.9.9.9.9.9.9.9.9.9.9.9.' ' i i i i t > > > : 8.9.9.9.9.: > > > > > > > > 8.9.9.9.m > > > > w i i i w Y 9.9.9.9.9.9.9.9.",
"9.9.9.9.9.9.9.9.9.9.9.9.Y 9.i w p i t > > : > 8.9.9.W ) : > > > > > > > > 8.9.9.H m > > > : q q q q a 9.9.9.9.9.9.9.9.9.",
"9.9.9.9.9.9.9.9.9.9.9.9.8.' 8.8.8.W +.> > : > , : : > : > > > > > > > > > > : : > > : > > > a.' 8.8.8.' 9.9.9.9.9.9.9.K ",
"9.9.9.9.9.9.9.9.9.9.9.9.9.9.9.9.9.9.+.> > > > > > > > > > > > > > > > > > > > > > > > > > > ' 9.9.9.9.9.9.9.9.9.9.9.9.9.",
"9.9.9.9.9.9.9.9.9.9.9.9.9.9.9.9.9.9.+.> > > > > > > > > > > > > > > > > > > > > > > > > > > ' 9.9.9.9.9.9.9.9.9.9.9.9.9.",
"9.9.9.9.9.9.9.9.9.9.9.9.9.W 8.8.8.H x.> > > > > > > > > > > > > > > > > > > > > > > > > > < ' 8.8.8.) W 9.9.9.9.9.9.9.9.",
"9.9.9.9.9.9.9.9.9.9.9.9.9.9.> > > > : > > > > > > > > > > > > > > > > > > > > > > > > > > > > > > > > ' 9.9.9.9.9.9.9.9.",
"9.9.9.9.9.9.9.9.9.9.9.9.O.9.> > > > > > > > > > > > > > > > > > > > > > > > > > > > > > > > > > > > < W 9.9.9.9.9.9.9.9.",
"9.9.9.9.9.9.9.9.9.9.9.9.O.9.> > > > > > > > > > > > > > > > > > > > > > > > > > > > > > > > > > > > < W 9.9.9.9.9.9.9.K ",
"9.8.8.' 9.) ) H O.W W W 9.9.: > > > > > > > > > > > < > < > : > > > > > > > > > > > > > > > > > > > > 9.9.9.8.9.9.9.9.8.",
"                  1 > > > > > > > > > > > > > > > > : <         * > > > > > > > > > > > > > > > > > ,                   ",
"                  - > > > > > > > > > > > > > > > > > >         & > > > > > > > > > > > > > > > > > >                   ",
"                  - > > > > > > > > > > > > > > > > > <         * > > > > > > > > > > > > > > > > > >                   ",
"          + + b O 9 9 9 9 9 9 9 9 9 9 9 9 9 7                             9 9 9 9 9 9 9 9 9 9 9 9 9 x + # + o           ",
"          i i w i i i i i i i i i i i i i i i                             q i i i i i i i i i i i i w q i i w           ",
"          i i i i i i i i i i i i i i i i i i                             w i i i i i i i i i i i i i i i i i           ",
"          i i i i i i i i i i i i i i i i i i                             w i i i i i i i i i i i i i i i i q           ",
"w w w r s i i i i i i i i i i i i i i i i i i                             w i i i i i i i i i i i i i i i i i q w w w d ",
"i i i i p i i i i i i i i i i i i i i i i i i                             w i i i i i i i i i i i i i i i i i i r i i r ",
"i i i i i i i i i i i i i i i i i i i i i i i                             w i i i i i i i i i i i i i i i i i i i i i i ",
"i i i i i i i i i i i i i i i i i i i i i i i                             w i i i i i i i i i i i i i i i i i i i i i i "
};
