/* XPM */
static char *_ae8d13a4bc94654d57a95b92b9497c37C1KXUPgiCyO5Mm0[] = {
/* columns rows colors chars-per-pixel */
"60 60 252 2 ",
"   c None",
".  c #0B090A",
"X  c #17120D",
"o  c #120F13",
"O  c #181617",
"+  c #120F0A",
"@  c #281C0D",
"#  c #231B1B",
"$  c #231616",
"%  c #310A15",
"&  c #37250C",
"*  c #372A15",
"=  c #322918",
"-  c #1A1B28",
";  c #381923",
":  c #2A1421",
">  c #242323",
",  c #39342B",
"<  c #152530",
"1  c #48091C",
"2  c #53071C",
"3  c #442915",
"4  c #463718",
"5  c #4B320E",
"6  c #581629",
"7  c #511328",
"8  c #690B26",
"9  c #7B0B2E",
"0  c #730C2B",
"q  c #6A152C",
"w  c #78122D",
"e  c #7D0A31",
"r  c #781734",
"t  c #671D33",
"y  c #473823",
"u  c #562F34",
"i  c #6F2D38",
"p  c #693917",
"a  c #5A4417",
"s  c #544113",
"d  c #654A17",
"f  c #6C5519",
"g  c #775819",
"h  c #6C4F11",
"j  c #796319",
"k  c #594827",
"l  c #4A4838",
"z  c #535135",
"x  c #6A5625",
"c  c #755A23",
"v  c #6E4D2F",
"b  c #7B6526",
"n  c #776837",
"m  c #76713E",
"M  c #183651",
"N  c #223A51",
"B  c #5A2A43",
"V  c #593243",
"C  c #493746",
"Z  c #683B58",
"A  c #71324F",
"S  c #7B3462",
"D  c #6B1D44",
"F  c #2D4854",
"G  c #2D5370",
"H  c #1D4360",
"J  c #535A51",
"K  c #6F4A52",
"L  c #586653",
"P  c #6A674C",
"I  c #7A7349",
"U  c #736D53",
"Y  c #595569",
"T  c #72536F",
"R  c #4F6569",
"E  c #71716E",
"W  c #960C39",
"Q  c #861939",
"!  c #98143A",
"~  c #860D33",
"^  c #A50E3D",
"/  c #90203F",
"(  c #88681A",
")  c #9A771A",
"_  c #906D1C",
"`  c #A47B19",
"'  c #B57F19",
"]  c #855632",
"[  c #886725",
"{  c #987723",
"}  c #8B742E",
"|  c #A37A25",
" . c #825D16",
".. c #911C45",
"X. c #A61646",
"o. c #B71549",
"O. c #B8104A",
"+. c #913153",
"@. c #B43453",
"#. c #AD2D50",
"$. c #89396A",
"%. c #B13473",
"&. c #C4164D",
"*. c #CA1653",
"=. c #D71756",
"-. c #CF0C4F",
";. c #EA175C",
":. c #F2165C",
">. c #F4165D",
",. c #EE0A59",
"<. c #D3265A",
"1. c #F51D63",
"2. c #EA1862",
"3. c #D53964",
"4. c #D33167",
"5. c #EB2466",
"6. c #F32364",
"7. c #F92B6A",
"8. c #F52B69",
"9. c #E8386A",
"0. c #FA356E",
"q. c #FD3D6F",
"w. c #F3356D",
"e. c #FD3D71",
"r. c #F53971",
"t. c #EC3278",
"y. c #D71C65",
"u. c #874D4C",
"i. c #8E7054",
"p. c #884875",
"a. c #944876",
"s. c #8D5172",
"d. c #A44B78",
"f. c #857D66",
"g. c #866870",
"h. c #AB6E55",
"j. c #D8446C",
"k. c #F74373",
"l. c #E84472",
"z. c #7F8664",
"x. c #A8841B",
"c. c #B68918",
"v. c #BC9419",
"b. c #B8860E",
"n. c #988538",
"m. c #A98622",
"M. c #B59129",
"N. c #C48D0D",
"B. c #CA970B",
"V. c #C79815",
"C. c #D69D0C",
"Z. c #D8A70D",
"A. c #CDA319",
"S. c #D7A916",
"D. c #DDB31A",
"F. c #E7B60C",
"G. c #E6B815",
"H. c #EAB40F",
"J. c #C59B27",
"K. c #CBA726",
"L. c #D6B525",
"P. c #E6B42A",
"I. c #FDCB06",
"U. c #FAC60C",
"Y. c #FCCA0A",
"T. c #F5C30A",
"R. c #F7C714",
"E. c #EDC41C",
"W. c #F1C621",
"Q. c #8E8952",
"!. c #AB9952",
"~. c #94956C",
"^. c #8D8E70",
"/. c #AA8F6C",
"(. c #B3B277",
"). c #9EA378",
"_. c #EDB74B",
"`. c #E58977",
"'. c #D9A368",
"]. c #CDC456",
"[. c #2C688F",
"{. c #19639D",
"}. c #47788C",
"|. c #776D89",
" X c #1A7ECD",
".X c #EE3B8B",
"XX c #974C80",
"oX c #A9578A",
"OX c #B2518C",
"+X c #8B728F",
"@X c #AB6C8A",
"#X c #8F7EA2",
"$X c #C85396",
"%X c #F34B86",
"&X c #F35387",
"*X c #EB4995",
"=X c #C86B95",
"-X c #EC7C97",
";X c #D55BA5",
":X c #E95AA9",
">X c #D568AB",
",X c #D575AD",
"<X c #CC67A7",
"1X c #EA67BB",
"2X c #E978B9",
"3X c #F678B8",
"4X c #ED6CAE",
"5X c #F679C5",
"6X c #F173C4",
"7X c #3E8EB7",
"8X c #6297A3",
"9X c #2F8ECF",
"0X c #2893E1",
"qX c #51A7CB",
"wX c #60ADCB",
"eX c #9C9A83",
"rX c #8C8694",
"tX c #A99A8C",
"yX c #8FAA90",
"uX c #B2B28C",
"iX c #9791AB",
"pX c #ADABB1",
"aX c #A49CAD",
"sX c #D59190",
"dX c #EC9191",
"fX c #D782AD",
"gX c #F588BC",
"hX c #EE85AE",
"jX c #AEC398",
"kX c #CCCD95",
"lX c #CBCBA8",
"zX c #D6D6A9",
"xX c #D2D3AE",
"cX c #F6F6BB",
"vX c #E9EBAF",
"bX c #EAEB9D",
"nX c #B2AFC4",
"mX c #FB8CC5",
"MX c #F988C7",
"NX c #FB91C4",
"BX c #F891C6",
"VX c #EF86C1",
"CX c #C8C5D8",
"ZX c #D2D1D7",
"AX c #F9F9C5",
"SX c #E8E9C9",
"DX c #D3D3E9",
"FX c #E7E9F4",
"GX c #F7F8F8",
"HX c #EBECF2",
"JX c #E3DDF4",
"KX c #BAC2E1",
/* pixels */
"                                                              - O O O         #                                         ",
"                                                  O o o o O o . . . . o o O o . o O                                     ",
"                                                > = = 4 4 @ * x [ [ f 4 = @ * k 4 O O                                   ",
"                                                R R E z.Q.x ( K.P.P.'.h.i.] } M.Q.L J                                   ",
"                                            < G 7XqXwXwXyX!.J.P._.'.dXhXdXdX'._.(.wX8XF F                               ",
"                                            - H [.9XqXwXyX!.M.J.J.`.-X3XhXdX'.!.^.8X[.M N                               ",
"                                                H H H F F y 5 5 v h.h.u.u.u u y , N N                                   ",
"                                              k x d d h h g g h d c g f h d d a * X O                                   ",
"                                          y a ( ` v.Z.Z.Z.G.G.S.c. . .) c.B.V.V.) f a 4 s                               ",
"                                      a a _ v.A.H.T.I.I.I.Y.Y.U.H.Z.S.D.G.U.U.U.R.E.G.A.` c x k                         ",
"                              $ @ 3 a _ v.S.G.R.Y.Y.I.Y.Y.R.R.Y.Y.U.U.R.R.Y.Y.Y.Y.Y.U.R.G.A.x.c k                       ",
"                          k x b ( ) c.A.F.H.U.I.I.I.I.I.I.Y.I.I.I.I.I.I.I.Y.Y.Y.Y.Y.I.I.T.F.v._ s X #                   ",
"                      k d _ x.V.F.T.Y.Y.Y.Y.Y.Y.Y.I.I.I.I.I.I.I.Y.Y.Y.Y.Y.Y.I.I.I.Y.Y.I.I.I.F.V.) j j j c               ",
"          4 & & 3 5 5 h ` V.G.H.Y.Y.I.U.U.U.T.T.T.T.T.Y.Y.I.I.Y.Y.Y.I.I.I.I.I.I.I.I.I.Y.I.I.Y.Y.R.W.P.J.( 4 y           ",
"      , x { v.D.E.E.E.R.R.R.Y.Y.I.I.I.U.H.Z.C.B.B.C.Z.G.R.U.Y.I.I.Y.Y.Y.Y.Y.Y.Y.Y.Y.Y.U.U.U.U.U.G.G.v.) f 4             ",
"          a j x.D.R.Y.Y.Y.Y.I.I.I.Y.Y.Y.Y.Y.T.F.Z.B.N.N.N.V.A.G.R.Y.Y.Y.Y.Y.Y.I.Y.R.G.A.V.v.V.Z.A.M.g & 4               ",
"      y x [ m.V.B.Z.G.U.Y.Y.I.Y.Y.Y.Y.Y.I.Y.T.F.V.) g 5 & 3 d ` A.G.R.Y.Y.Y.U.R.G.V._ p 5 @ s ( v.D.M.{ x y             ",
"        k x ( ) c.V.C.F.T.T.Y.Y.Y.U.U.U.Y.Y.T.V.` } i.~.~.!.Q.c g x.V.Z.Z.Z.C.V.` g } Q.U z k d ` V.v.` d 3 *           ",
"            k x  ._ ' V.S.Z.F.F.H.F.F.F.F.H.G.x.b m Q.kXbXbXkX~.I n c f f f f x n I Q.^.P l k a ( ` ( c k               ",
"                & d { ` c.b.b.b.N.c.c.c.v.S.D.x.b m Q.kXcXcXcXbX(.I l = = = = , U uX~.J , O = 4 x [ a @                 ",
"                    @ & & a [ [ ( a * * s x.K.{ b I ~.zXcXcXkXP P eXkXzXzXzXlXlX^.J E uX^.P , X # ,                     ",
"                    X 4 f f d x U f.^.z 4 ) K.{ b I ^.xXAXcXuXl z tXzXAXAXAXAXvXeXl E uXeXU , . o -                     ",
"                  v c { J.) d x P ~.(.P 4 ) L.K.M.n.Q.Q.).xXuXl z tXzXAXAXAXcXvX).l E uXeXE , . . O >                   ",
"              $ @ d m.K.G.V.) [ n f.^.E J I n.M.K.m.( k P kXlX^.^.kXvXAXAXAXAXcXuX^.eXzX).U l @ & * @ X                 ",
"  o . X @ * 4 s a ) S.G.R.D.v.} z J G 7XqX[.G L } } } m ^.zXAXAXSXzXxXlXlXxXvXcXcXcXvXkXeXE L z n n k                   ",
"    O 4 b m.L.E.E.R.U.U.R.v.( z F {. X0X0X0XqX}.R U Q.kXbXcXAXAXlXz.z , , J ~.vXvXzX~.l R }.}.}.F >                     ",
"    X * g ` S.E.R.R.Y.Y.R.S.c.} z G {.{. X{.G J z n n I ~.kXcXcXvXzXkXuXuXkXzXvXuXU l > H [.[.[.H -                     ",
"        k f f j ( c.D.G.H.v._ d * > < M M < o = 4 a f c n I f.f.f.f.f.f.f.^.f.f.g.s.s.s.T Y G G                         ",
"        k s 4 5 p ( J.M.m.[ v i B V V V V V V V V i v ] ] i B V V u u u a a a d u.d.=X2X=XoXs.K                         ",
"      4 x [ m.c.N.c.x.[ u +.OX<X6XMXBXBXNXNXgXgX4XOXa.A A OX>X2XgX2XdXsX'.].].].n.v u.d.=XhX<X@XZ : O o                 ",
"          4 a g ` g 3 A OX>X5XMXmXmXNXmXmXmXmXmXMX5X6X>XOXB B =XdX'.'.yX8X7XqXwXjX].Q.p K oX,XBXfX@XZ $                 ",
"          4 d g | c 3 A OX>X5XMXmXNXNXNXNXNXNXmXmXmXgXfX@XB V @XsX'./.8X7X9X9X9X8X(.n.a K p.$X6X,X@XZ $                 ",
"          4 a g | g 3 A OX>X5XMXmXmXNXNXBX5X6X6X1X<XoXp.$.XX$X2XgX-X-X/./.~.).(.(.`.h.u A $.$X6X;XOXZ ;                 ",
"          4 a g ` ) [ ] +.d.<X,XVXMXMX5X5X5X6X<XoXZ u 7 D %.*X4X3X3X3XhXdX`.`.dX-X4Xd.B K g.@XsX@XT                     ",
"          y k b { m.m._ p i a.OX>X,X,X>X>X,X,XoXT u y u A #.4.*X4X3X3X3X3X3X4X:X:X;Xa.Z g.eXeXeXU #                     ",
"              3 3 d { | m.[ d y ; ; ; ; ; ; y U tXlXxXxXtXK r #.4.l.%X&X%X%Xt.4.+.t T iXnXCXpXrXY -                     ",
"              O + @ & d ) ` ' ` ) { { } b 4 = P eXlXSXZXCXnX#XZ A OX;X4X3X3X3X,Xd.B g.nXCXDXnX#XY -                     ",
"      O # O O X X * x _ c.b.N.N.N.c.) f 5 @ $ J rXnXDXDXDXJXDXnX#XT p.OX<X2X2XfXs.u E pXpXaXrXY                         ",
"    . @ 4 a f f h ( x.b.N.N.N.b.` [ v A S S S T +XiXnXKXDXFXHXFXCXpXrX+Xs.a.s.s.g.E aXZXpXE L                           ",
"      k n n.M.J.V.V.N.N.N.b.` [ ] u.$.$X1X1X1X$XXXXX|.iXnXDXHXGXGXGXZXpXrXE Y Y E rXpXZXaXE Y                           ",
"          d [ m.K.A.V.V.c.[ k A $.OX2X3X5X5X6X6X1XOXa.Z T iXCXJXHXGXGXGXGXGXHXJXaXY |.iX|.T Y C                         ",
"              x d _ J.| g v s.OX>X2XMXMXMXMXMXMXMX2X>XOXa.K T nXDXFXGXGXGXGXGXHXZXnXrXY T p.p.p.Z                       ",
"                    v u.s.OX>X2XMXmXNXNXNXNXBXBXBXBXMX6X>XoXs.T +XnXZXFXGXGXGXGXGXFXCXaX#XT p.$.p.p.Z                   ",
"                    r %.$X:X6X5XMXMXmXmXmXNXNXmXBXNXBXBXMX6X<XXXp.+XiXnXZXFXHXGXHXFXCXaX#XT XXoXoXoXZ $                 ",
"                    4..X.X*X*X;X>X2XMXMXmXBXBXBXmXmXmXBXBXBXMX5X<Xa.p.+XiXnXnXCXnXpX+XK s.oX,XVX,X=X+.q t               ",
"              6 6 / 4.4.=.X.9 ..+.$X4X3XMXMXgXgXgXgXVXMXMXmXmXNXMX5X<Xp.B ; % % : ; A OX;X1X3X3X:X.Xy.O.e 2 7           ",
"          6 w ! &.<.9.#.w ~ ! O.;.2.5.r.k.l.j.@.+.$.d.;X3XMXmXmXMXmXmXgXgXVX2X1X:X:Xd.D $.d.$X*Xt.,.=.-.~ 2 7           ",
"      6 r X.<.5.8.w.l.#.6 9 ^ *.1.7.0.9.3.+.r Q X.o.y.5.t.%X&X&X&X&X&X&X%X%X%X%Xt.t.y.*.X.....#.<.0.8.5.=.&...r         ",
"    $ 7 ~ o.;.8.0.r.l.#.6 w ^ *.5.w.e.l.3.r 2 w X.=.8.0.r.k.k.k.q.q.q.q.q.q.q.0.0.7.6.;.O.9 w r @.k.r.0.6.=.! 0 6       ",
"    # 7 ~ o.5.w.r.j.3.#.w ! o.<.8.9.l.3.@.Q 0 ! o.<.8.r.e.e.e.e.e.e.e.e.e.e.e.e.e.e.8.5.&.^ ! Q #.j.9.w.6.=.! 0 6       ",
"    7 q ! &.5.9.9.#.q Q X.*.5.w.k.3.@.Q 8 ! &.=.5.w.q.e.k.e.e.e.e.e.e.e.e.e.e.e.e.e.e.e.8.5.o.W Q r @.w.6.=.^ 0 6       ",
"; 6 ..o.=.;.6.9.l.#.6 w O.<.7.r.k.3.@.r 2 W -.;.7.0.e.e.e.e.e.e.e.e.e.e.e.e.e.e.e.e.e.e.7.1.&.W 0 q #.w.6.;.^ 9 t       ",
"$ 6 X.=.2.7.0.r.j.#.6 r o.=.7.0.k.3.@.r 2 W -.;.7.0.e.e.e.e.e.e.e.e.e.e.e.q.q.q.e.e.e.e.7.1.&.W 0 q #.w.6.:.=.&.X.Q u   ",
"% 6 X.=.;.6.7.w.l.#.6 r o.=.8.0.k.3.@.r 2 W -.;.7.0.e.e.e.e.e.e.e.e.e.e.e.q.q.q.e.e.e.e.7.1.&.W w q #.w.6.>.,.,.O.~ 7 # ",
"  6 Q X.&.=.;.2.4...2 9 O.=.8.0.k.3.@.r 2 W -.;.7.0.e.e.e.e.e.e.e.e.e.e.e.q.q.q.e.e.e.e.7.1.&.W 9 q o.5.1.,.,.,.O.~ 7 # ",
"      t ..X.o.o.X.r 1 9 O.=.6.7.r.4.#.r 2 W -.;.6.7.0.0.0.q.e.q.q.q.q.q.q.q.q.q.q.e.e.e.7.6.&.W 9 8 ^ =.-.-.-.O.X.Q 6 ; ",
"          u 1 % % % % 8 X.*.:.;.;.*.X.0 2 W &.=.:.:.:.>.6.0.e.e.e.e.e.e.e.q.q.q.e.e.e.e.7.6.o.~ 0 8 ! o.W 0 2 1 6       ",
"                        t 6 2 2 2 1 1 % % % 1 2 8 ~ ^ -.:.:.>.>.>.>.>.>.>.>.>.:.:.:.;.;.&.! 8 % % % 1 6 t               ",
"                                                    r e e e e 9 9 9 9 9 9 e e e e ~ 9 e r i                             ",
"                                                        O O $ $ $ $ $ $ # # # # # # # >                                 "
};
