/* XPM */
static char *_1a98751f043408df54767780176099bQtX1Gg20QIePPITw[] = {
/* columns rows colors chars-per-pixel */
"60 60 167 2 ",
"   c None",
".  c #010101",
"X  c #0B0705",
"o  c #0E0805",
"O  c #070708",
"+  c #0B0B0B",
"@  c #140A04",
"#  c #180D02",
"$  c #140B09",
"%  c #1A0F0B",
"&  c #1A100B",
"*  c #111111",
"=  c #231307",
"-  c #2B1605",
";  c #2E1804",
":  c #221208",
">  c #321904",
",  c #3C1E06",
"<  c #301A08",
"1  c #2D1B14",
"2  c #3F2106",
"3  c #36231C",
"4  c #3C241A",
"5  c #401F06",
"6  c #402105",
"7  c #502705",
"8  c #562B05",
"9  c #5E3004",
"0  c #442A1F",
"q  c #643304",
"w  c #69360A",
"e  c #6E3A0B",
"r  c #763B05",
"t  c #7A3D05",
"y  c #733D0C",
"u  c #673E1B",
"i  c #4D3022",
"p  c #533224",
"a  c #593525",
"s  c #623A29",
"d  c #7E4003",
"f  c #66411C",
"g  c #71432F",
"h  c #764732",
"j  c #7B4934",
"k  c #814205",
"l  c #8B4605",
"z  c #8D4709",
"x  c #8C4809",
"c  c #924904",
"v  c #9B4D03",
"b  c #964D09",
"n  c #9A4F08",
"m  c #824710",
"M  c #A45203",
"N  c #AB5706",
"B  c #A0550E",
"V  c #B35A03",
"C  c #B85C02",
"Z  c #A05710",
"A  c #BF6203",
"S  c #BD650D",
"D  c #BD6713",
"F  c #BE6610",
"G  c #BF6710",
"H  c #BF6812",
"J  c #BA6816",
"K  c #BF6917",
"L  c #C16101",
"P  c #C26100",
"I  c #C36100",
"U  c #C26101",
"Y  c #C36101",
"T  c #C16200",
"R  c #C16201",
"E  c #C26200",
"W  c #C26201",
"Q  c #C36201",
"!  c #C36200",
"~  c #C16102",
"^  c #C16103",
"/  c #C26102",
"(  c #C36103",
")  c #C06202",
"_  c #C16202",
"`  c #C06203",
"'  c #C16203",
"]  c #C16303",
"[  c #C26202",
"{  c #C26203",
"}  c #C26303",
"|  c #C06204",
" . c #C16204",
".. c #C06205",
"X. c #C16305",
"o. c #C16304",
"O. c #C26204",
"+. c #C26304",
"@. c #C26305",
"#. c #C16306",
"$. c #C26306",
"%. c #C16406",
"&. c #C06407",
"*. c #C16407",
"=. c #C16405",
"-. c #C56507",
";. c #C26101",
":. c #C16308",
">. c #C26308",
",. c #C06408",
"<. c #C16408",
"1. c #C16409",
"2. c #C06409",
"3. c #C1650A",
"4. c #C0650B",
"5. c #C1660B",
"6. c #C1660A",
"7. c #C2660B",
"8. c #C2650B",
"9. c #C1660D",
"0. c #C0670F",
"q. c #C1670F",
"w. c #C0670E",
"e. c #C1650D",
"r. c #C4660D",
"t. c #C8670B",
"y. c #C1680F",
"u. c #C9680C",
"i. c #C06710",
"p. c #C16711",
"a. c #C06712",
"s. c #C16A13",
"d. c #C06915",
"f. c #C16A14",
"g. c #C26A15",
"h. c #D06D17",
"j. c #D26F1A",
"k. c #DB7729",
"l. c #DD792D",
"z. c #E37D34",
"x. c #E07B33",
"c. c #955D44",
"v. c #9D5D40",
"b. c #A56343",
"n. c #A96544",
"m. c #AB6748",
"M. c #B16A47",
"N. c #B46C4A",
"B. c #B96E4C",
"V. c #BD704D",
"C. c #C3734F",
"Z. c #C87651",
"A. c #CD7A52",
"S. c #D27C54",
"D. c #E1813C",
"F. c #EA8542",
"G. c #E5875B",
"H. c #EB8C5E",
"J. c #F48C52",
"K. c #FB925B",
"L. c #D78962",
"P. c #E98C63",
"I. c #F18E60",
"U. c #ED9165",
"Y. c #F79262",
"T. c #FF9563",
"R. c #FB9969",
/* pixels */
"                                            S S S S S S S S S S S S S S S S                                             ",
"                                            / / / / / / / / / / / / / / / /                                             ",
"                                            / / / / / / / / / / / / / / / /                                             ",
"                                          d./ / / / / / / / / / / / / / / / p.                                          ",
"                                  d.9.%.:.%./ / / / / / / / / / / / / / / / #.%.7.9.K                                   ",
"                                  9.#./ / / / / / / / / / / / / / / / / / / / / / %.p.                                  ",
"                                  S #./ / / / / / / / / / / / / / / / / / / / / / #.p.                                  ",
"                                d.7.#./ / / / / / / / / / / / / / / / / / / / / / / 7.d.                                ",
"                          S %.%.#./ / / / / / / / / / / / / / / / / / / / / / / / / / #.#.%.p.                          ",
"                          S / / / / / / / / / / / / / / / / / / / / / / / / / / / / / / / / 7.                          ",
"                          S / / / / / / / / / / / / / / / / / / / / / / / / / / / / / / / / 9.                          ",
"                  F F F S :./ / / / / / / / / / / / / / / / / / / / / / / / / / / / / / / / %.9.F S F                   ",
"                  #.#.#.#./ / / / / / / / / / / / / / / / / / / / / / / / / / / / / / / / / / #.#.#.:.                  ",
"                  #./ / / / / / / / / / / / / / / / / / / / / / / / / / / / / / / / / / / / / / / / #.s.                ",
"                B v v v v v v v M V A / / / / / / / / / / / / / / / / / / / / / / A V M v v v v v v n Z                 ",
"          p.9.9.y 6 > > > > > > 7 l V / / / / / / / / / / / / / / / / / / / / / / C c 8 > > > > > > 2 e 9.S F           ",
"        S #./ / q # . . . . . . - t V / / / / / / / / / / / / / / / / / / / / / / V k ; . . . . . . @ 9 / / / S         ",
"        S #./ / q # . . . . . . - t V / / / / / / / / / / / / / / / / / / / / / / V k ; . . . . . . @ 9 / / / S         ",
"        S / / / t 5 - - = @ . . - w x b n N / / / / / / / / / / / / / / / / N v b x e < . . @ : - - , r / / #.S         ",
"        S / / / / / A A S         + . . @ 8 / / / / / / / / / / / / / / / / q # . . o         H 7./ / / / / / S         ",
"        S / / / / / / #.S         + . . @ 8 / / / / / / / / / / / / / / / / q @ . . +         y.#./ / / / / #.S         ",
"        S / / / / / / #.S         + . . @ 8 A A A A A A A A A A A A A A A / 9 @ . . +         9.#./ / / / / #.S         ",
"        S / / / / / / #.S         + . . o , d d d d d d d d d d d d d d d d 2 o . . +         9.#./ / / / / / S S       ",
"F A / / / / / / / / / #.S         + . . . . . . . . . . . . . . . . . . . . . . . . +         9.#./ / / / / / / / / #.S ",
"9.#./ / / / / / / / / #.S         + . . . . . . . . . . . . . . . . . . . . . . . . +         y.#./ / / / / / / / / / S ",
"9.#./ / / / / / / / / #.S         + . . . . . . . . . . . . . . . . . . . . . . . . +         9.#./ / / / / / / / / / 7.",
"9./ / / / / / / / / / #.S         + . . . *       f m z z x x x x m u       + . . . +         9.#./ / / / / / / / / / %.",
"9./ / / / / / / / / / #.S         + . . . *         S / / / / / / A         + . . . +         9.#./ / / / / / / / / / %.",
"9./ / / / / / / / / / #.S         + . . . *         7./ / / / / / A         + . . . +         9.#./ / / / / / / / / / %.",
"9./ / / / / / / / / / #.S         + . . +           7./ / / / / / A           . . + +         9.#./ / / / / / / / / / %.",
"9./ / / / / / / / / / #.S                           7./ / / / / / A                           9.#./ / / / / / / / / / %.",
"9./ / / / / / / / / / #.S                           7./ / / / / / S                           9.#./ / / / / / / / / / %.",
"9./ / / / / / / / / / #.S                           7./ / / / / / A                           9.#./ / / / / / / / / / %.",
"9./ / / / / / / / / / / S                           7./ / / / / / A                           9./ / / / / / / / / / / %.",
"y./ / / / / / / / / / / #.7.7.7.7.7.7.7.7.7.7.7.7.7./ / / / / / / / %.7.7.7.7.7.7.7.7.7.7.7.7.#./ / / / / / / / / / / %.",
"9./ / / / / / / / / / / / / / / / / / / / / / / / / / / / / / / / / / / / / / / / / / / / / / / / / / / / / / / / / / %.",
"p.#./ / / / / / / / / / / / / / / / / / / / / / / / / / / / / / / / / / / / / / / / / / / / / / / / / / / / / / / / / S ",
"      F 7.#./ / / / / / / / / / / / / / -.h.z.z.z.z.z.z.z.z.z.z.z.z.z.z.z.z.j.-./ / / / / / / / / / / / / / / S F     J ",
"        S #./ / / / / / / / / / / / / / t.k.K.K.K.K.K.K.K.K.K.K.K.K.K.K.K.K.l.t./ / / / / / / / / / / / / / #.S         ",
"        9.#./ / / / / / / / / / / / / / t.l.T.T.T.T.T.T.T.T.T.T.T.T.T.T.T.T.x.u./ / / / / / / / / / / / / / #.S         ",
"        F #./ / / / / / / / / / / / / / t.l.T.T.T.T.T.T.T.T.T.T.T.T.T.T.T.T.x.u./ / / / / / / / / / / / / / A S         ",
"                                  D.F.F.F.J.T.T.T.T.T.T.T.T.T.T.T.T.T.T.T.T.J.F.F.F.D.                                  ",
"                                  R.T.T.T.T.T.T.T.T.T.T.T.T.T.T.T.T.T.T.T.T.T.T.T.T.R.                                  ",
"                                  R.T.T.T.T.T.T.T.T.T.T.T.T.T.T.T.T.T.T.T.T.T.T.T.T.R.                                  ",
"                                  R.T.T.T.T.T.T.T.T.T.T.T.T.T.T.T.T.T.T.T.T.T.T.T.T.U.                                  ",
"                                  R.T.T.T.T.T.T.T.T.T.T.T.T.T.T.T.T.T.T.T.T.T.T.T.I.B.i . . . . . . .                   ",
"                                  R.T.T.T.T.T.T.T.T.T.T.T.T.T.T.T.T.T.T.T.T.T.T.T.H.n.4 . . . . . . . +                 ",
"                                  R.T.T.T.T.T.T.T.T.T.T.T.T.T.T.T.T.T.T.T.T.T.T.T.H.n.4 . . . . . . . +                 ",
"                                  c.m.M.B.S.T.T.T.T.T.T.T.T.T.T.T.H.A.N.M.M.M.M.M.b.h 1 . . . . . . . +                 ",
"                  . . . . . . . X $ % % 1 j T.T.T.T.T.T.T.T.T.T.T.Z.g 1 & & & & & % $ . . . . . . . . . . . . .         ",
"                  . . . . . . . . . . . % g T.T.T.T.T.T.T.T.T.T.T.C.s $ . . . . . . . . . . . . . . . . . . . .         ",
"                  . . . . . . . . . . . % g T.T.T.T.T.T.T.T.T.T.T.C.s $ . . . . . . . . . . . . . . . . . . . .         ",
"                  . . . . . . . . . . . o 0 v.v.b.V.G.T.T.Y.b.v.v.h 4 o . . . . . . . . . . . . . . . . . . . .         ",
"                  . . . . . . . . . . . . . . . $ a V.T.T.H.% . . . . . . . . . . . . . . . . . . . . . . . . .         ",
"                  . . . . . . . . . . . . . . . @ a V.T.T.H.& . . . . . . . . . . . . . . . . . . . . . . . . .         ",
"                  . . . . . . . . . . . . . . . @ p B.T.T.P.% . . . . . . . . . . . . . . . . . . . . . . . . .         ",
"                      + + . . . . . . . . . . . X 3 c.    L.$ . . . . . . . . . . . . . . . . . . . . +                 ",
"                          . . . . . . . . . . . . +         + . . . . . . . . . . . . . . . . . . . . +                 ",
"                          . . . . . . . . . . . . .         . . . . . . . . . . . . . . . . . . . . . +                 ",
"                          . . . . . . . . . . . . +         . . . . . . . . . . . . . . . . . . . . .                   "
};
