/* XPM */
static char *e0dc24907b064999981b824f44255f84cU8HsQ0caRfcdbsm[] = {
/* columns rows colors chars-per-pixel */
"60 60 47 1 ",
"  c black",
". c #373737",
"X c #373737",
"o c #373737",
"O c #373737",
"+ c #373737",
"@ c #373737",
"# c #373737",
"$ c #373737",
"% c #373737",
"& c #3B3938",
"* c #413C39",
"= c #423C39",
"- c #393837",
"; c #373737",
": c #373737",
"> c #51433C",
", c #6B4F41",
"< c #7A5644",
"1 c #7C5744",
"2 c #755443",
"3 c #634C3F",
"4 c #835A46",
"5 c #845B46",
"6 c #373737",
"7 c #383837",
"8 c #3D3A38",
"9 c #3E3A38",
"0 c #3E3B38",
"q c #3F3B39",
"w c #725342",
"e c #795644",
"r c #805945",
"t c #373737",
"y c #4D423C",
"u c #825A46",
"i c gray22",
"p c #835B46",
"a c #373737",
"s c #805945",
"d c #373737",
"f c None",
"g c #825A45",
"h c #403B39",
"j c #735343",
"k c #373737",
"l c #373737",
/* pixels */
"   .XoO++++++++++++++++++++++++++++++++++++++++++++++Oo@.   ",
" #$%+&*========+-*========================*-+========*&+;$# ",
" $:->,<11111111+*21111111111111111111111112*+11111111<,>-:$ ",
".;-345555555555+=15555555555555555555555551=+555555555543-%.",
"X+>455555555555+=15555555555555555555555551=+555555555554>+X",
"o&,555555555555+=15555555555555555555555551=+555555555555,&6",
"O*<555555555555+=15555555555555555555555551=+555555555555<*O",
"+=1555555555555+=15555555555555555555555551=+5555555555551=+",
"+=1555555555555+=15555555555555555555555551=+5555555555551=+",
"+=1555555555555+=15555555555555555555555551=+5555555555551=+",
"+*2111111111111+*21111111111111111111111112*+1111111111112*+",
"+78999999999999+7899999999999999999999999987+99999999999987+",
"+70qqqqqqqqqqqqqqqqqqqqqqqqqq++qqqqqqqqqqqqqqqqqqqqqqqqqq07+",
"+*weeeeeeeeeeeeeeeeeeeeeeeee2++2eeeeeeeeeeeeeeeeeeeeeeeeew*+",
"+=15555555555555555555555555r++r55555555555555555555555551=+",
"tyu5555555555555555555555555r++r55555555555555555555555551=+",
"ip55555555555555555555555555r++r55555555555555555555555551=+",
"as55555555555555555555555555r++r55555555555555555555555551=+",
"dfg5555555555555555555555555r++r55555555555555555555555551=+",
"+=15555555555555555555555555r++r55555555555555555555555551=+",
"+=15555555555555555555555555r++r55555555555555555555555551=+",
"+=15555555555555555555555555r++r55555555555555555555555551=+",
"+=15555555555555555555555555r++r55555555555555555555555551=+",
"++---------------------------++---------------------------++",
"+-h************+-h************************h-+************h-+",
"+*j<<<<<<<<<<<<+*j<<<<<<<<<<<<<<<<<<<<<<<<j*+<<<<<<<<<<<<j*+",
"+=1555555555555+=15555555555555555555555551=+5555555555551=+",
"+=1555555555555+=15555555555555555555555551=+5555555555551=+",
"+=1555555555555+=15555555555555555555555551=+5555555555551=+",
"+=1555555555555+=15555555555555555555555551=+5555555555551=+",
"+=1555555555555+=15555555555555555555555551=+5555555555551=+",
"+=1555555555555+=15555555555555555555555551=+5555555555551=+",
"+=1555555555555+=15555555555555555555555551=+5555555555551=+",
"+=1555555555555+=15555555555555555555555551=+5555555555551=+",
"+*j<<<<<<<<<<<<+*j<<<<<<<<<<<<<<<<<<<<<<<<j*+<<<<<<<<<<<<j*+",
"+-h************+-h************************h-+************h-+",
"++---------------------------++---------------------------++",
"+=15555555555555555555555555r++r55555555555555555555555551=+",
"+=15555555555555555555555555r++r55555555555555555555555551=+",
"+=15555555555555555555555555r++r55555555555555555555555551=+",
"+=15555555555555555555555555r++r55555555555555555555555551=+",
"+=15555555555555555555555555r++r55555555555555555555555551=+",
"+=15555555555555555555555555r++r55555555555555555555555551=+",
"+=15555555555555555555555555r++r55555555555555555555555551=+",
"+=15555555555555555555555555r++r55555555555555555555555551=+",
"+=15555555555555555555555555r++r55555555555555555555555551=+",
"+*weeeeeeeeeeeeeeeeeeeeeeeee2++2eeeeeeeeeeeeeeeeeeeeeeeeew*+",
"+70qqqqqqqqqqqqqqqqqqqqqqqqqq++qqqqqqqqqqqqqqqqqqqqqqqqqq07+",
"+78999999999999+7899999999999999999999999987+99999999999987+",
"+*2111111111111+*21111111111111111111111112*+1111111111112*+",
"+=1555555555555+=15555555555555555555555551=+5555555555551=+",
"+=1555555555555+=15555555555555555555555551=+5555555555551=+",
"+=1555555555555+=15555555555555555555555551=+5555555555551=+",
"O*<555555555555+=15555555555555555555555551=+555555555555<*O",
"o&,555555555555+=15555555555555555555555551=+555555555555,&6",
"X+>455555555555+=15555555555555555555555551=+555555555554>+X",
".%-345555555555+=15555555555555555555555551=+555555555543-%k",
" $:->,<11111111+*21111111111111111111111112*+11111111<,>-:l ",
" #l%+&*========+-*========================*-+========*&+;$# ",
"   kX6O++++++++++++++++++++++++++++++++++++++++++++++OoX.   "
};
